<svg width="18" height="18" viewBox="0 0 18 18" fill="none" xmlns="http://www.w3.org/2000/svg">
<path d="M1.72727 2.33333H4.63636H13.3636H16.2727C16.6744 2.33333 17 2.63181 17 3V6.33333V16.3333C17 16.7015 16.6744 17 16.2727 17H1.72727C1.32561 17 1 16.7015 1 16.3333V6.33333V3C1 2.63181 1.32561 2.33333 1.72727 2.33333Z" fill="#FFFBEB"/>
<path d="M13.3636 1V3.66667M4.63636 1V3.66667M1 6.33333H17M1.72727 2.33333H16.2727C16.6744 2.33333 17 2.63181 17 3V16.3333C17 16.7015 16.6744 17 16.2727 17H1.72727C1.32561 17 1 16.7015 1 16.3333V3C1 2.63181 1.32561 2.33333 1.72727 2.33333Z" stroke="#D97706" stroke-width="1.5" stroke-linecap="round" stroke-linejoin="round"/>
</svg>
