<svg width="61" height="61" viewBox="0 0 61 61" fill="none" xmlns="http://www.w3.org/2000/svg">
<path fill-rule="evenodd" clip-rule="evenodd" d="M16.4015 0C17.6956 0 18.7446 1.04904 18.7446 2.34308V4.68615H42.1754V2.34308C42.1754 1.04904 43.2246 0 44.5185 0C45.8123 0 46.8615 1.04904 46.8615 2.34308V4.68615H53.8908C57.7728 4.68615 60.92 7.83323 60.92 11.7154V53.8908C60.92 57.7728 57.7728 60.92 53.8908 60.92H7.02923C3.14708 60.92 0 57.7728 0 53.8908V11.7154C0 7.83323 3.14708 4.68615 7.02923 4.68615H14.0585V2.34308C14.0585 1.04904 15.1075 0 16.4015 0ZM42.1754 9.37231V11.7154C42.1754 13.0094 43.2246 14.0585 44.5185 14.0585C45.8123 14.0585 46.8615 13.0094 46.8615 11.7154V9.37231H53.8908C55.1846 9.37231 56.2338 10.4214 56.2338 11.7154V18.7446H4.68615V11.7154C4.68615 10.4214 5.7352 9.37231 7.02923 9.37231H14.0585V11.7154C14.0585 13.0094 15.1075 14.0585 16.4015 14.0585C17.6956 14.0585 18.7446 13.0094 18.7446 11.7154V9.37231H42.1754ZM4.68615 23.4308V53.8908C4.68615 55.1846 5.7352 56.2338 7.02923 56.2338H53.8908C55.1846 56.2338 56.2338 55.1846 56.2338 53.8908V23.4308H4.68615ZM28.1169 30.46C28.1169 29.166 29.166 28.1169 30.46 28.1169C31.754 28.1169 32.8031 29.166 32.8031 30.46C32.8031 31.754 31.754 32.8031 30.46 32.8031C29.166 32.8031 28.1169 31.754 28.1169 30.46ZM39.8323 28.1169C38.5383 28.1169 37.4892 29.166 37.4892 30.46C37.4892 31.754 38.5383 32.8031 39.8323 32.8031C41.1263 32.8031 42.1754 31.754 42.1754 30.46C42.1754 29.166 41.1263 28.1169 39.8323 28.1169ZM46.8615 30.46C46.8615 29.166 47.9108 28.1169 49.2046 28.1169C50.4985 28.1169 51.5477 29.166 51.5477 30.46C51.5477 31.754 50.4985 32.8031 49.2046 32.8031C47.9108 32.8031 46.8615 31.754 46.8615 30.46ZM49.2046 37.4892C47.9108 37.4892 46.8615 38.5383 46.8615 39.8323C46.8615 41.1263 47.9108 42.1754 49.2046 42.1754C50.4985 42.1754 51.5477 41.1263 51.5477 39.8323C51.5477 38.5383 50.4985 37.4892 49.2046 37.4892ZM37.4892 39.8323C37.4892 38.5383 38.5383 37.4892 39.8323 37.4892C41.1263 37.4892 42.1754 38.5383 42.1754 39.8323C42.1754 41.1263 41.1263 42.1754 39.8323 42.1754C38.5383 42.1754 37.4892 41.1263 37.4892 39.8323ZM30.46 37.4892C29.166 37.4892 28.1169 38.5383 28.1169 39.8323C28.1169 41.1263 29.166 42.1754 30.46 42.1754C31.754 42.1754 32.8031 41.1263 32.8031 39.8323C32.8031 38.5383 31.754 37.4892 30.46 37.4892ZM18.7446 39.8323C18.7446 38.5383 19.7937 37.4892 21.0877 37.4892C22.3817 37.4892 23.4308 38.5383 23.4308 39.8323C23.4308 41.1263 22.3817 42.1754 21.0877 42.1754C19.7937 42.1754 18.7446 41.1263 18.7446 39.8323ZM11.7154 37.4892C10.4214 37.4892 9.37231 38.5383 9.37231 39.8323C9.37231 41.1263 10.4214 42.1754 11.7154 42.1754C13.0094 42.1754 14.0585 41.1263 14.0585 39.8323C14.0585 38.5383 13.0094 37.4892 11.7154 37.4892ZM9.37231 49.2046C9.37231 47.9108 10.4214 46.8615 11.7154 46.8615C13.0094 46.8615 14.0585 47.9108 14.0585 49.2046C14.0585 50.4985 13.0094 51.5477 11.7154 51.5477C10.4214 51.5477 9.37231 50.4985 9.37231 49.2046ZM21.0877 46.8615C19.7937 46.8615 18.7446 47.9108 18.7446 49.2046C18.7446 50.4985 19.7937 51.5477 21.0877 51.5477C22.3817 51.5477 23.4308 50.4985 23.4308 49.2046C23.4308 47.9108 22.3817 46.8615 21.0877 46.8615ZM28.1169 49.2046C28.1169 47.9108 29.166 46.8615 30.46 46.8615C31.754 46.8615 32.8031 47.9108 32.8031 49.2046C32.8031 50.4985 31.754 51.5477 30.46 51.5477C29.166 51.5477 28.1169 50.4985 28.1169 49.2046ZM39.8323 46.8615C38.5383 46.8615 37.4892 47.9108 37.4892 49.2046C37.4892 50.4985 38.5383 51.5477 39.8323 51.5477C41.1263 51.5477 42.1754 50.4985 42.1754 49.2046C42.1754 47.9108 41.1263 46.8615 39.8323 46.8615Z" fill="#000000"/>
</svg>
