<svg xmlns="http://www.w3.org/2000/svg" fill="none" viewBox="3 2 14 14"><g filter="url(#filter0_dd_121_12127)"><rect x="3" y="2" width="14" height="14" rx="3.5" fill="#007AFF" shape-rendering="crispEdges"></rect><rect x="3" y="2" width="14" height="14" rx="3.5" fill="url(#paint0_linear_121_12127)" fill-opacity="0.17" shape-rendering="crispEdges"></rect><path d="M9.10791 12.813C8.83545 12.813 8.6084 12.7046 8.42676 12.4878L6.15918 9.74121C6.08008 9.65039 6.02441 9.5625 5.99219 9.47754C5.95996 9.39258 5.94385 9.30469 5.94385 9.21387C5.94385 9.00586 6.0127 8.83447 6.15039 8.69971C6.29102 8.56201 6.4668 8.49316 6.67773 8.49316C6.91211 8.49316 7.10693 8.58838 7.26221 8.77881L9.09033 11.042L12.6807 5.36865C12.7715 5.23096 12.8652 5.13428 12.9619 5.07861C13.0615 5.02002 13.1831 4.99072 13.3267 4.99072C13.5376 4.99072 13.7119 5.05811 13.8496 5.19287C13.9873 5.32764 14.0562 5.49756 14.0562 5.70264C14.0562 5.77881 14.043 5.85791 14.0166 5.93994C13.9902 6.02197 13.9492 6.10693 13.8936 6.19482L9.80225 12.457C9.64111 12.6943 9.40967 12.813 9.10791 12.813Z" fill="white"></path></g><defs><filter id="filter0_dd_121_12127" x="0.5" y="0.5" width="19" height="19" filterUnits="userSpaceOnUse" color-interpolation-filters="sRGB"><feFlood flood-opacity="0" result="BackgroundImageFix"></feFlood><feColorMatrix in="SourceAlpha" type="matrix" values="0 0 0 0 0 0 0 0 0 0 0 0 0 0 0 0 0 0 127 0" result="hardAlpha"></feColorMatrix><feMorphology radius="0.5" operator="dilate" in="SourceAlpha" result="effect1_dropShadow_121_12127"></feMorphology><feOffset></feOffset><feComposite in2="hardAlpha" operator="out"></feComposite><feColorMatrix type="matrix" values="0 0 0 0 0 0 0 0 0 0.478431 0 0 0 0 1 0 0 0 0.12 0"></feColorMatrix><feBlend mode="normal" in2="BackgroundImageFix" result="effect1_dropShadow_121_12127"></feBlend><feColorMatrix in="SourceAlpha" type="matrix" values="0 0 0 0 0 0 0 0 0 0 0 0 0 0 0 0 0 0 127 0" result="hardAlpha"></feColorMatrix><feOffset dy="1"></feOffset><feGaussianBlur stdDeviation="1.25"></feGaussianBlur><feComposite in2="hardAlpha" operator="out"></feComposite><feColorMatrix type="matrix" values="0 0 0 0 0 0 0 0 0 0.478431 0 0 0 0 1 0 0 0 0.24 0"></feColorMatrix><feBlend mode="normal" in2="effect1_dropShadow_121_12127" result="effect2_dropShadow_121_12127"></feBlend><feBlend mode="normal" in="SourceGraphic" in2="effect2_dropShadow_121_12127" result="shape"></feBlend></filter><linearGradient id="paint0_linear_121_12127" x1="10" y1="2" x2="10" y2="16" gradientUnits="userSpaceOnUse"><stop stop-color="white"></stop><stop offset="1" stop-color="white" stop-opacity="0"></stop></linearGradient></defs></svg>
