<svg class="svg-icon" style="width: 1em; height: 1em;vertical-align: middle;fill: currentColor;overflow: hidden;" viewBox="0 0 1024 1024" version="1.1" xmlns="http://www.w3.org/2000/svg"><path d="M768 716.8l-51.2 51.2M716.8 768L256 307.2l51.2-51.2 460.8 460.8" fill="#cacaca" /><path d="M254.976 718.336l459.776-459.776 50.688 50.688-459.776 459.776z" fill="#cacaca" /><path d="M512 0C230.4 0 0 230.4 0 512s230.4 512 512 512 512-230.4 512-512S793.6 0 512 0z m0 967.68c-250.88 0-455.68-204.8-455.68-455.68s204.8-455.68 455.68-455.68 455.68 204.8 455.68 455.68-204.8 455.68-455.68 455.68z" fill="#cacaca" /></svg>
