<svg width="14" height="10" viewBox="0 0 14 10" fill="none" xmlns="http://www.w3.org/2000/svg">
<path d="M11.8458 0.831035C10.9591 0.443635 9.99905 0.162458 8.99902 0C8.98144 0.000234755 8.96466 0.00697243 8.95235 0.0187453C8.83235 0.224942 8.69235 0.493622 8.59901 0.699819C7.53831 0.549952 6.45963 0.549952 5.39892 0.699819C5.30559 0.487374 5.16558 0.224942 5.03891 0.0187453C5.03225 0.00624851 5.01225 0 4.99225 0C3.99222 0.162458 3.03886 0.443635 2.1455 0.831035C2.13883 0.831035 2.13217 0.837283 2.1255 0.843532C0.312118 3.38662 -0.187896 5.86098 0.0587777 8.31035C0.0587777 8.32284 0.0654445 8.33534 0.0787782 8.34159C1.27881 9.16638 2.43218 9.66625 3.57221 9.99741C3.59221 10.0037 3.61221 9.99741 3.61888 9.98491C3.88555 9.64125 4.12556 9.27885 4.33223 8.8977C4.34556 8.8727 4.33223 8.84771 4.30556 8.84146C3.92555 8.704 3.56554 8.54154 3.2122 8.35409C3.18553 8.34159 3.18553 8.3041 3.20553 8.28536C3.27887 8.23537 3.3522 8.17913 3.42554 8.12915C3.43887 8.11665 3.45887 8.11665 3.4722 8.1229C5.7656 9.10389 8.239 9.10389 10.5057 8.1229C10.5191 8.11665 10.5391 8.11665 10.5524 8.12915C10.6257 8.18538 10.6991 8.23537 10.7724 8.2916C10.7991 8.31035 10.7991 8.34784 10.7657 8.36034C10.4191 8.55404 10.0524 8.71025 9.67237 8.84771C9.64571 8.85396 9.63904 8.8852 9.64571 8.90394C9.85905 9.2851 10.0991 9.6475 10.3591 9.99116C10.3791 9.99741 10.3991 10.0037 10.4191 9.99741C11.5658 9.66625 12.7191 9.16638 13.9192 8.34159C13.9325 8.33534 13.9392 8.32284 13.9392 8.31035C14.2325 5.47983 13.4525 3.02422 11.8724 0.843532C11.8658 0.837283 11.8591 0.831035 11.8458 0.831035ZM4.6789 6.81699C3.99222 6.81699 3.41887 6.22339 3.41887 5.49233C3.41887 4.76127 3.97889 4.16767 4.6789 4.16767C5.38559 4.16767 5.94561 4.76752 5.93894 5.49233C5.93894 6.22339 5.37892 6.81699 4.6789 6.81699ZM9.3257 6.81699C8.63901 6.81699 8.06566 6.22339 8.06566 5.49233C8.06566 4.76127 8.62568 4.16767 9.3257 4.16767C10.0324 4.16767 10.5924 4.76752 10.5857 5.49233C10.5857 6.22339 10.0324 6.81699 9.3257 6.81699Z" fill="#52525B"/>
</svg>
