<svg width="24" height="24" viewBox="0 0 24 24" fill="none" xmlns="http://www.w3.org/2000/svg">
<g clip-path="url(#clip0_4311_14009)">
<g filter="url(#filter0_dd_4311_14009)">
<rect x="2" y="2" width="20" height="20" rx="10" fill="white" shape-rendering="crispEdges"/>
<path d="M11.6572 14.4434C11.3779 14.4434 11.1579 14.3608 10.9971 14.1958C10.8405 14.0308 10.7622 13.8149 10.7622 13.5483C10.7622 13.4976 10.7622 13.4489 10.7622 13.4023C10.7622 13.3516 10.7622 13.3029 10.7622 13.2563C10.7622 12.9093 10.8278 12.5983 10.959 12.3232C11.0944 12.0482 11.2827 11.7964 11.5239 11.5679C11.7651 11.3394 12.0423 11.1214 12.3555 10.9141C12.6602 10.7152 12.9141 10.5269 13.1172 10.3491C13.3245 10.1672 13.4811 9.97249 13.5869 9.76514C13.6927 9.55778 13.7456 9.31445 13.7456 9.03516C13.7456 8.72201 13.6631 8.45117 13.498 8.22266C13.333 7.98991 13.1087 7.81006 12.8252 7.68311C12.5459 7.55615 12.2306 7.49268 11.8794 7.49268C11.5916 7.49268 11.3271 7.53923 11.0859 7.63232C10.8447 7.72542 10.6353 7.87354 10.4575 8.07666C10.2798 8.27555 10.1401 8.54215 10.0386 8.87646C9.96663 9.06266 9.85449 9.20866 9.70215 9.31445C9.5498 9.42025 9.37207 9.47314 9.16895 9.47314C8.90234 9.47314 8.69499 9.39697 8.54688 9.24463C8.39876 9.09229 8.32471 8.89128 8.32471 8.6416C8.32471 8.50195 8.34163 8.35807 8.37549 8.20996C8.40934 8.06185 8.46224 7.91162 8.53418 7.75928C8.71615 7.37419 8.9764 7.04622 9.31494 6.77539C9.65348 6.50033 10.047 6.29085 10.4956 6.14697C10.9484 5.99886 11.4372 5.9248 11.9619 5.9248C12.6686 5.9248 13.3013 6.04753 13.8599 6.29297C14.4227 6.53841 14.8649 6.89176 15.1865 7.35303C15.5081 7.81429 15.6689 8.36865 15.6689 9.01611C15.6689 9.62549 15.5145 10.1502 15.2056 10.5903C14.8966 11.0304 14.4587 11.4325 13.8916 11.7964C13.5446 12.0207 13.2738 12.2174 13.0791 12.3867C12.8887 12.5518 12.7511 12.721 12.6665 12.8945C12.5819 13.0638 12.5311 13.2712 12.5142 13.5166C12.5142 13.542 12.512 13.5716 12.5078 13.6055C12.5078 13.6351 12.5057 13.6647 12.5015 13.6943C12.4761 13.9229 12.3914 14.1048 12.2476 14.2402C12.1037 14.3757 11.9069 14.4434 11.6572 14.4434ZM11.6699 18.0234C11.4626 18.0234 11.2721 17.9748 11.0986 17.8774C10.9251 17.7801 10.7855 17.6468 10.6797 17.4775C10.5781 17.3083 10.5273 17.12 10.5273 16.9126C10.5273 16.7095 10.5781 16.5233 10.6797 16.354C10.7855 16.1847 10.9251 16.0514 11.0986 15.9541C11.2721 15.8525 11.4626 15.8018 11.6699 15.8018C11.8815 15.8018 12.0741 15.8525 12.2476 15.9541C12.4211 16.0514 12.5586 16.1847 12.6602 16.354C12.766 16.5233 12.8188 16.7095 12.8188 16.9126C12.8188 17.12 12.766 17.3083 12.6602 17.4775C12.5586 17.6468 12.4211 17.7801 12.2476 17.8774C12.0741 17.9748 11.8815 18.0234 11.6699 18.0234Z" fill="black" fill-opacity="0.85"/>
</g>
</g>
<defs>
<filter id="filter0_dd_4311_14009" x="-0.5" y="0" width="25" height="25" filterUnits="userSpaceOnUse" color-interpolation-filters="sRGB">
<feFlood flood-opacity="0" result="BackgroundImageFix"/>
<feColorMatrix in="SourceAlpha" type="matrix" values="0 0 0 0 0 0 0 0 0 0 0 0 0 0 0 0 0 0 127 0" result="hardAlpha"/>
<feMorphology radius="0.5" operator="dilate" in="SourceAlpha" result="effect1_dropShadow_4311_14009"/>
<feOffset/>
<feComposite in2="hardAlpha" operator="out"/>
<feColorMatrix type="matrix" values="0 0 0 0 0 0 0 0 0 0 0 0 0 0 0 0 0 0 0.05 0"/>
<feBlend mode="normal" in2="BackgroundImageFix" result="effect1_dropShadow_4311_14009"/>
<feColorMatrix in="SourceAlpha" type="matrix" values="0 0 0 0 0 0 0 0 0 0 0 0 0 0 0 0 0 0 127 0" result="hardAlpha"/>
<feOffset dy="0.5"/>
<feGaussianBlur stdDeviation="1.25"/>
<feComposite in2="hardAlpha" operator="out"/>
<feColorMatrix type="matrix" values="0 0 0 0 0 0 0 0 0 0 0 0 0 0 0 0 0 0 0.3 0"/>
<feBlend mode="normal" in2="effect1_dropShadow_4311_14009" result="effect2_dropShadow_4311_14009"/>
<feBlend mode="normal" in="SourceGraphic" in2="effect2_dropShadow_4311_14009" result="shape"/>
</filter>
<clipPath id="clip0_4311_14009">
<rect width="24" height="24" fill="white"/>
</clipPath>
</defs>
</svg>
