<svg width="7" height="5" viewBox="0 0 7 5" fill="none" xmlns="http://www.w3.org/2000/svg">
<path d="M3.5 4.57275C3.29492 4.57275 3.10579 4.4873 2.93262 4.31641L0.468262 1.79736C0.40446 1.73128 0.356608 1.66064 0.324707 1.58545C0.295085 1.51025 0.280273 1.42708 0.280273 1.33594C0.280273 1.21289 0.309896 1.1001 0.369141 0.997559C0.430664 0.892741 0.511556 0.81071 0.611816 0.751465C0.714355 0.689941 0.826009 0.65918 0.946777 0.65918C1.13363 0.65918 1.29997 0.733236 1.4458 0.881348L3.61963 3.13037H3.38721L5.5542 0.881348C5.69548 0.733236 5.85954 0.65918 6.04639 0.65918C6.16943 0.65918 6.28109 0.689941 6.38135 0.751465C6.48389 0.81071 6.56478 0.892741 6.62402 0.997559C6.68555 1.1001 6.71631 1.21289 6.71631 1.33594C6.71631 1.51823 6.65251 1.67204 6.5249 1.79736L4.06396 4.31641C3.9751 4.40527 3.88509 4.47021 3.79395 4.51123C3.70508 4.55225 3.6071 4.57275 3.5 4.57275Z" fill="#262626"/>
</svg>
