<svg width="252" height="56" viewBox="0 0 252 56" fill="none" xmlns="http://www.w3.org/2000/svg">
<rect x="1.17487" y="1" width="135" height="54" rx="27" stroke="#333333" stroke-width="2"/>
<path d="M58.2279 22V8.9043H60.601V14.4502H66.6654V8.9043H69.0385V22H66.6654V16.4453H60.601V22H58.2279ZM75.4699 8.9043V22H73.0969V8.9043H75.4699ZM79.5284 22V8.9043H84.4415C85.4493 8.9043 86.293 9.0918 86.9727 9.4668C87.6583 9.8418 88.1768 10.3574 88.5284 11.0137C88.8799 11.6699 89.0557 12.4141 89.0557 13.2461C89.0557 14.084 88.877 14.8311 88.5196 15.4873C88.168 16.1377 87.6465 16.6504 86.9551 17.0254C86.2637 17.3945 85.4141 17.5791 84.4063 17.5791H81.1544V15.6279H84.0811C84.6729 15.6279 85.1563 15.5283 85.5313 15.3291C85.9122 15.124 86.1905 14.8428 86.3663 14.4854C86.5479 14.1221 86.6387 13.709 86.6387 13.2461C86.6387 12.7773 86.5479 12.3672 86.3663 12.0156C86.1905 11.6582 85.9122 11.3828 85.5313 11.1895C85.1563 10.9902 84.67 10.8906 84.0723 10.8906H81.9014V22H79.5284ZM92.8329 22H90.2929L94.9159 8.9043H97.8339L102.448 22H99.9169L96.4188 11.5938H96.3134L92.8329 22ZM92.9208 16.8672H99.8202V18.7656H92.9208V16.8672ZM107.35 22H104.81L109.433 8.9043H112.351L116.966 22H114.434L110.936 11.5938H110.831L107.35 22ZM107.438 16.8672H114.338V18.7656H107.438V16.8672Z" fill="#333333"/>
<path d="M51.6258 37.1172C50.8602 37.1172 50.1746 36.9395 49.5692 36.584C48.9676 36.2285 48.493 35.7168 48.1453 35.0488C47.8016 34.3809 47.6297 33.5781 47.6297 32.6406C47.6297 31.6992 47.8035 30.8945 48.1512 30.2266C48.5028 29.5547 48.9793 29.041 49.5809 28.6855C50.1863 28.3301 50.868 28.1523 51.6258 28.1523C52.1063 28.1523 52.5555 28.2207 52.9735 28.3574C53.3953 28.4941 53.7703 28.6953 54.0985 28.9609C54.4266 29.2227 54.6942 29.5449 54.9012 29.9277C55.1121 30.3066 55.2508 30.7383 55.3172 31.2227H53.7235C53.6805 30.957 53.5965 30.7227 53.4715 30.5195C53.3504 30.3164 53.1981 30.1445 53.0145 30.0039C52.8348 29.8594 52.6297 29.752 52.3992 29.6816C52.1688 29.6074 51.9207 29.5703 51.6551 29.5703C51.1785 29.5703 50.7567 29.6895 50.3895 29.9277C50.0223 30.1621 49.7352 30.5098 49.5281 30.9707C49.3211 31.4277 49.2176 31.9844 49.2176 32.6406C49.2176 33.3047 49.3211 33.8652 49.5281 34.3223C49.7391 34.7754 50.0262 35.1191 50.3895 35.3535C50.7567 35.584 51.1766 35.6992 51.6492 35.6992C51.911 35.6992 52.1551 35.666 52.3817 35.5996C52.6082 35.5293 52.8133 35.4258 52.9969 35.2891C53.1844 35.1484 53.3387 34.9805 53.4598 34.7852C53.5848 34.5859 53.6727 34.3574 53.7235 34.0996H55.3172C55.2586 34.5176 55.1297 34.9102 54.9305 35.2773C54.7352 35.6406 54.4774 35.9609 54.1571 36.2383C53.8406 36.5117 53.4696 36.7266 53.0438 36.8828C52.618 37.0391 52.1453 37.1172 51.6258 37.1172ZM61.5678 37.1172C60.806 37.1172 60.1205 36.9395 59.5111 36.584C58.9056 36.2285 58.4271 35.7168 58.0756 35.0488C57.7279 34.3809 57.5541 33.5781 57.5541 32.6406C57.5541 31.6992 57.7279 30.8945 58.0756 30.2266C58.4271 29.5547 58.9056 29.041 59.5111 28.6855C60.1205 28.3301 60.806 28.1523 61.5678 28.1523C62.3334 28.1523 63.017 28.3301 63.6185 28.6855C64.2201 29.041 64.6967 29.5547 65.0482 30.2266C65.3998 30.8945 65.5756 31.6992 65.5756 32.6406C65.5756 33.5781 65.3998 34.3809 65.0482 35.0488C64.6967 35.7168 64.2201 36.2285 63.6185 36.584C63.017 36.9395 62.3334 37.1172 61.5678 37.1172ZM61.5678 35.6992C62.0404 35.6992 62.4584 35.582 62.8217 35.3477C63.1849 35.1133 63.4701 34.7695 63.6771 34.3164C63.8842 33.8594 63.9877 33.3008 63.9877 32.6406C63.9877 31.9766 63.8842 31.416 63.6771 30.959C63.4701 30.502 63.1849 30.1562 62.8217 29.9219C62.4584 29.6875 62.0404 29.5703 61.5678 29.5703C61.0951 29.5703 60.6752 29.6875 60.308 29.9219C59.9447 30.1562 59.6596 30.502 59.4525 30.959C59.2455 31.416 59.142 31.9766 59.142 32.6406C59.142 33.3008 59.2455 33.8594 59.4525 34.3164C59.6596 34.7695 59.9447 35.1133 60.308 35.3477C60.6752 35.582 61.0951 35.6992 61.5678 35.6992ZM68.0585 28.2695H69.998L72.5878 34.5918H72.6874L75.2831 28.2695H77.246V37H75.6933V31H75.623L73.1972 36.9707H72.0605L69.664 30.9883H69.582V37H68.0585V28.2695ZM79.9517 37V28.2695H83.2271C83.8989 28.2695 84.4614 28.3945 84.9146 28.6445C85.3716 28.8945 85.7173 29.2383 85.9517 29.6758C86.186 30.1133 86.3032 30.6094 86.3032 31.1641C86.3032 31.7227 86.1841 32.2207 85.9458 32.6582C85.7114 33.0918 85.3638 33.4336 84.9028 33.6836C84.4419 33.9297 83.8755 34.0527 83.2036 34.0527H81.0356V32.752H82.9868C83.3813 32.752 83.7036 32.6855 83.9536 32.5527C84.2075 32.416 84.3931 32.2285 84.5103 31.9902C84.6313 31.748 84.6919 31.4727 84.6919 31.1641C84.6919 30.8516 84.6313 30.5781 84.5103 30.3438C84.3931 30.1055 84.2075 29.9219 83.9536 29.793C83.7036 29.6602 83.3794 29.5938 82.981 29.5938H81.5337V37H79.9517ZM88.669 37V28.2695H90.251V35.6758H94.1006V37H88.669ZM98.0309 28.2695V37H96.4488V28.2695H98.0309ZM101.862 37H100.168L103.25 28.2695H105.195L108.272 37H106.584L104.252 30.0625H104.182L101.862 37ZM101.92 33.5781H106.52V34.8438H101.92V33.5781ZM117.598 28.2695V37H116.18L112.073 31.0527H111.997V37H110.415V28.2695H111.833L115.94 34.2168H116.016V28.2695H117.598ZM119.923 29.5938V28.2695H126.884V29.5938H124.189V37H122.624V29.5938H119.923Z" fill="#333333"/>
<path d="M52.813 48V41.4521H53.9996V44.2251H57.0318V41.4521H58.2183V48H57.0318V45.2227H53.9996V48H52.813ZM60.3541 41.4521V48H59.1675V41.4521H60.3541ZM61.3033 48V41.4521H63.7598C64.2637 41.4521 64.6856 41.5459 65.0255 41.7334C65.3682 41.9209 65.6275 42.1787 65.8033 42.5068C65.9791 42.835 66.067 43.207 66.067 43.623C66.067 44.042 65.9776 44.4155 65.7989 44.7437C65.6231 45.0688 65.3624 45.3252 65.0167 45.5127C64.671 45.6973 64.2462 45.7896 63.7422 45.7896H62.1163V44.814H63.5797C63.8755 44.814 64.1172 44.7642 64.3047 44.6646C64.4952 44.562 64.6343 44.4214 64.7222 44.2427C64.813 44.061 64.8585 43.8545 64.8585 43.623C64.8585 43.3887 64.813 43.1836 64.7222 43.0078C64.6343 42.8291 64.4952 42.6914 64.3047 42.5947C64.1172 42.4951 63.8741 42.4453 63.5753 42.4453H62.4898V48H61.3033ZM66.8755 48H65.6055L67.9171 41.4521H69.376L71.6832 48H70.4175L68.6685 42.7969H68.6158L66.8755 48ZM66.9195 45.4336H70.3692V46.3828H66.9195V45.4336ZM73.0543 48H71.7842L74.0958 41.4521H75.5547L77.8619 48H76.5963L74.8472 42.7969H74.7945L73.0543 48ZM73.0982 45.4336H76.5479V46.3828H73.0982V45.4336ZM77.3126 42.4453V41.4521H82.5333V42.4453H80.5118V48H79.3384V42.4453H77.3126ZM82.6387 48V43.0869H83.7593V43.9131H83.8121C83.9 43.626 84.0538 43.4062 84.2735 43.2539C84.4932 43.0986 84.7437 43.021 85.025 43.021C85.0865 43.021 85.1568 43.0239 85.2359 43.0298C85.3179 43.0356 85.3853 43.043 85.438 43.0518V44.1152C85.3882 44.0977 85.3106 44.083 85.2051 44.0713C85.0997 44.0596 84.9986 44.0537 84.9019 44.0537C84.688 44.0537 84.4976 44.0991 84.3306 44.1899C84.1636 44.2808 84.0318 44.4053 83.9351 44.5635C83.8414 44.7217 83.7945 44.9062 83.7945 45.1172V48H82.6387ZM87.2003 48.1011C86.8868 48.1011 86.6055 48.0454 86.3565 47.9341C86.1075 47.8198 85.9112 47.6528 85.7676 47.4331C85.6241 47.2134 85.5523 46.9424 85.5523 46.6201C85.5523 46.3447 85.6036 46.1162 85.7061 45.9346C85.8087 45.7529 85.9478 45.6079 86.1236 45.4995C86.3023 45.3911 86.503 45.3091 86.7256 45.2534C86.9483 45.1948 87.1783 45.1538 87.4156 45.1304C87.7056 45.0981 87.94 45.0703 88.1187 45.0469C88.2974 45.0234 88.4263 44.9854 88.5054 44.9326C88.5875 44.8799 88.6285 44.7979 88.6285 44.6865V44.6646C88.6285 44.4272 88.5582 44.2427 88.4175 44.1108C88.2769 43.979 88.0718 43.9131 87.8023 43.9131C87.5181 43.9131 87.2925 43.9746 87.1255 44.0977C86.9615 44.2207 86.8502 44.3657 86.7916 44.5327L85.7149 44.3789C85.7999 44.0801 85.9405 43.8311 86.1368 43.6318C86.3331 43.4297 86.5718 43.2788 86.8531 43.1792C87.1373 43.0767 87.4507 43.0254 87.7935 43.0254C88.0279 43.0254 88.2623 43.0532 88.4966 43.1089C88.731 43.1616 88.9464 43.2524 89.1426 43.3813C89.3389 43.5103 89.4957 43.6831 89.6129 43.8999C89.73 44.1167 89.7886 44.3877 89.7886 44.7129V48H88.6768V47.3232H88.6417C88.5714 47.458 88.4717 47.5854 88.3428 47.7056C88.2169 47.8228 88.0587 47.918 87.8682 47.9912C87.6807 48.0645 87.4581 48.1011 87.2003 48.1011ZM87.4947 47.2485C87.7291 47.2485 87.9312 47.2031 88.1011 47.1123C88.2711 47.0186 88.4029 46.8955 88.4966 46.7432C88.5904 46.5879 88.6373 46.4194 88.6373 46.2378V45.6621C88.5992 45.6914 88.5377 45.7192 88.4527 45.7456C88.3677 45.769 88.2711 45.791 88.1627 45.8115C88.0543 45.832 87.9473 45.8496 87.8419 45.8643C87.7393 45.8789 87.65 45.8906 87.5738 45.8994C87.4009 45.9229 87.2457 45.9624 87.108 46.0181C86.9732 46.0708 86.8663 46.144 86.7872 46.2378C86.7081 46.3315 86.6685 46.4531 86.6685 46.6025C86.6685 46.8164 86.7462 46.9775 86.9014 47.0859C87.0567 47.1943 87.2545 47.2485 87.4947 47.2485ZM90.6456 48V43.0869H91.8013V48H90.6456ZM91.2256 42.397C91.0411 42.397 90.8829 42.3354 90.751 42.2124C90.6192 42.0894 90.5533 41.9414 90.5533 41.7686C90.5533 41.5928 90.6192 41.4434 90.751 41.3203C90.8829 41.1973 91.0411 41.1357 91.2256 41.1357C91.4073 41.1357 91.564 41.1973 91.6959 41.3203C91.8277 41.4434 91.8936 41.5913 91.8936 41.7642C91.8936 41.9399 91.8277 42.0894 91.6959 42.2124C91.564 42.3354 91.4073 42.397 91.2256 42.397ZM93.814 45.126V48H92.6583V43.0869H93.7921V43.9263H93.8492C93.9605 43.6509 94.1348 43.4326 94.3721 43.2715C94.6124 43.1074 94.9171 43.0254 95.2862 43.0254C95.626 43.0254 95.9219 43.0972 96.1739 43.2407C96.4258 43.3843 96.6207 43.5952 96.7584 43.8735C96.899 44.1489 96.9693 44.4829 96.9693 44.8755V48H95.8135V45.0557C95.8135 44.7275 95.7286 44.4712 95.5587 44.2866C95.3887 44.0991 95.1544 44.0054 94.8555 44.0054C94.6534 44.0054 94.4732 44.0493 94.315 44.1372C94.1597 44.2251 94.0367 44.3525 93.9459 44.5195C93.858 44.6836 93.814 44.8857 93.814 45.126ZM97.8262 48V43.0869H98.982V48H97.8262ZM98.4063 42.397C98.2217 42.397 98.0635 42.3354 97.9317 42.2124C97.7999 42.0894 97.7339 41.9414 97.7339 41.7686C97.7339 41.5928 97.7999 41.4434 97.9317 41.3203C98.0635 41.1973 98.2217 41.1357 98.4063 41.1357C98.588 41.1357 98.7447 41.1973 98.8765 41.3203C99.0084 41.4434 99.0743 41.5913 99.0743 41.7642C99.0743 41.9399 99.0084 42.0894 98.8765 42.2124C98.7447 42.3354 98.588 42.397 98.4063 42.397ZM100.995 45.126V48H99.8389V43.0869H100.973V43.9263H101.03C101.141 43.6509 101.315 43.4326 101.553 43.2715C101.793 43.1074 102.098 43.0254 102.467 43.0254C102.807 43.0254 103.103 43.0972 103.355 43.2407C103.607 43.3843 103.801 43.5952 103.939 43.8735C104.08 44.1489 104.15 44.4829 104.15 44.8755V48H102.994V45.0557C102.994 44.7275 102.909 44.4712 102.739 44.2866C102.569 44.0991 102.335 44.0054 102.036 44.0054C101.834 44.0054 101.654 44.0493 101.496 44.1372C101.34 44.2251 101.217 44.3525 101.127 44.5195C101.039 44.6836 100.995 44.8857 100.995 45.126ZM107.134 49.9424C106.51 49.9424 106.019 49.8208 105.662 49.5776C105.304 49.3374 105.074 49.0459 104.972 48.7031L106.009 48.4482C106.056 48.5449 106.125 48.6401 106.215 48.7339C106.306 48.8306 106.428 48.9097 106.58 48.9712C106.732 49.0356 106.924 49.0679 107.156 49.0679C107.484 49.0679 107.755 48.9873 107.969 48.8262C108.186 48.668 108.294 48.4087 108.294 48.0483V47.1211H108.228C108.172 47.2383 108.087 47.3599 107.973 47.4858C107.859 47.6089 107.708 47.7144 107.521 47.8022C107.336 47.8872 107.102 47.9297 106.817 47.9297C106.442 47.9297 106.101 47.8403 105.794 47.6616C105.489 47.4829 105.246 47.2163 105.064 46.8618C104.885 46.5073 104.796 46.0635 104.796 45.5303C104.796 44.9912 104.885 44.5356 105.064 44.1636C105.246 43.7915 105.49 43.5088 105.798 43.3154C106.106 43.1221 106.448 43.0254 106.826 43.0254C107.113 43.0254 107.351 43.0737 107.538 43.1704C107.726 43.2671 107.875 43.3843 107.986 43.522C108.098 43.6567 108.184 43.7827 108.246 43.8999H108.307V43.0869H109.437V48.0791C109.437 48.498 109.337 48.8452 109.138 49.1206C108.939 49.396 108.665 49.6011 108.316 49.7358C107.97 49.8735 107.576 49.9424 107.134 49.9424ZM107.143 47.02C107.512 47.02 107.796 46.8882 107.995 46.6245C108.197 46.3579 108.298 45.9902 108.298 45.5215C108.298 45.2109 108.254 44.9399 108.167 44.7085C108.079 44.4771 107.948 44.2969 107.775 44.168C107.603 44.0391 107.392 43.9746 107.143 43.9746C106.885 43.9746 106.669 44.042 106.497 44.1768C106.324 44.3115 106.193 44.4961 106.106 44.7305C106.021 44.9619 105.978 45.2256 105.978 45.5215C105.978 45.8203 106.022 46.0825 106.11 46.3081C106.198 46.5337 106.328 46.7095 106.501 46.8354C106.677 46.9585 106.891 47.02 107.143 47.02ZM110.642 48.041C110.523 48.041 110.421 48 110.337 47.918C110.255 47.8359 110.214 47.7354 110.214 47.6162C110.214 47.4971 110.255 47.3965 110.337 47.3145C110.421 47.2324 110.523 47.1914 110.642 47.1914C110.761 47.1914 110.862 47.2324 110.944 47.3145C111.028 47.3965 111.07 47.4971 111.07 47.6162C111.07 47.7354 111.028 47.8359 110.944 47.918C110.862 48 110.761 48.041 110.642 48.041ZM113.1 48.0674C112.786 48.0674 112.514 47.9951 112.286 47.8506C112.057 47.7061 111.881 47.5068 111.758 47.2529C111.635 46.999 111.574 46.708 111.574 46.3799C111.574 46.0459 111.636 45.752 111.761 45.498C111.888 45.2422 112.065 45.043 112.292 44.9004C112.52 44.7559 112.788 44.6836 113.094 44.6836C113.344 44.6836 113.566 44.7295 113.759 44.8213C113.955 44.9111 114.112 45.0391 114.231 45.2051C114.352 45.3711 114.423 45.5645 114.445 45.7852H113.824C113.802 45.6816 113.76 45.5869 113.698 45.501C113.637 45.415 113.557 45.3467 113.458 45.2959C113.358 45.2451 113.24 45.2197 113.103 45.2197C112.925 45.2197 112.77 45.2666 112.637 45.3604C112.506 45.4521 112.404 45.584 112.33 45.7559C112.255 45.9277 112.218 46.1309 112.218 46.3652C112.218 46.6016 112.254 46.8076 112.327 46.9834C112.399 47.1592 112.502 47.2949 112.634 47.3906C112.769 47.4844 112.925 47.5312 113.103 47.5312C113.287 47.5312 113.443 47.4805 113.572 47.3789C113.703 47.2773 113.787 47.1387 113.824 46.9629H114.445C114.423 47.1758 114.355 47.3652 114.24 47.5312C114.125 47.6973 113.97 47.8281 113.777 47.9238C113.584 48.0195 113.358 48.0674 113.1 48.0674ZM116.27 48.0674C115.963 48.0674 115.695 47.9971 115.464 47.8564C115.236 47.7158 115.058 47.5186 114.931 47.2646C114.806 47.0107 114.744 46.7158 114.744 46.3799C114.744 46.04 114.806 45.7432 114.931 45.4893C115.058 45.2334 115.236 45.0352 115.464 44.8945C115.695 44.7539 115.963 44.6836 116.27 44.6836C116.579 44.6836 116.847 44.7539 117.076 44.8945C117.304 45.0352 117.482 45.2334 117.609 45.4893C117.736 45.7432 117.799 46.04 117.799 46.3799C117.799 46.7158 117.736 47.0107 117.609 47.2646C117.482 47.5186 117.304 47.7158 117.076 47.8564C116.847 47.9971 116.579 48.0674 116.27 48.0674ZM116.27 47.5312C116.471 47.5312 116.637 47.4785 116.768 47.373C116.899 47.2676 116.996 47.1279 117.058 46.9541C117.123 46.7783 117.155 46.5869 117.155 46.3799C117.155 46.1689 117.123 45.9756 117.058 45.7998C116.996 45.624 116.899 45.4834 116.768 45.3779C116.637 45.2725 116.471 45.2197 116.27 45.2197C116.071 45.2197 115.906 45.2725 115.775 45.3779C115.646 45.4834 115.549 45.624 115.485 45.7998C115.42 45.9756 115.388 46.1689 115.388 46.3799C115.388 46.5869 115.42 46.7783 115.485 46.9541C115.549 47.1279 115.646 47.2676 115.775 47.373C115.906 47.4785 116.071 47.5312 116.27 47.5312ZM118.259 48V44.7246H118.866V45.2637H118.91C118.978 45.082 119.089 44.9404 119.244 44.8389C119.4 44.7354 119.586 44.6836 119.8 44.6836C120.019 44.6836 120.202 44.7354 120.348 44.8389C120.497 44.9404 120.607 45.082 120.679 45.2637H120.714C120.793 45.0859 120.917 44.9453 121.086 44.8418C121.256 44.7363 121.459 44.6836 121.693 44.6836C121.99 44.6836 122.233 44.7773 122.422 44.9648C122.612 45.1504 122.707 45.4307 122.707 45.8057V48H122.068V45.8643C122.068 45.6416 122.007 45.4814 121.886 45.3838C121.765 45.2842 121.621 45.2344 121.453 45.2344C121.246 45.2344 121.085 45.2988 120.969 45.4277C120.856 45.5547 120.799 45.7158 120.799 45.9111V48H120.161V45.8232C120.161 45.6455 120.106 45.5029 119.997 45.3955C119.887 45.2881 119.744 45.2344 119.566 45.2344C119.445 45.2344 119.333 45.2666 119.229 45.3311C119.128 45.3936 119.045 45.4814 118.983 45.5947C118.922 45.7061 118.892 45.835 118.892 45.9814V48H118.259Z" fill="#333333"/>
<path d="M28.0098 15.0004C27.8805 15.0042 27.7313 15.0347 27.5494 15.0983C24.8695 16.0343 20.7899 18.4974 17.1749 19.6007C17.8162 20.0015 18.5149 20.3552 19.2386 20.6357C20.0475 20.2612 20.8376 19.8887 21.5074 19.515C22.3276 19.0575 22.9611 18.5811 23.2249 18.1922L24.0047 18.7306C23.5718 19.3689 22.8362 19.8633 21.9647 20.3493C21.5314 20.5911 21.0625 20.8266 20.5786 21.0587C21.0225 21.1665 21.4683 21.2428 21.9095 21.2796C22.109 21.2962 22.307 21.3053 22.5035 21.3068C23.4393 20.7212 24.3249 19.9654 24.6102 19.4219L25.4453 19.8681C25.2407 20.2578 24.9327 20.6324 24.5633 20.9821C25.4864 20.6545 26.3228 20.0623 27.0168 19.1287L27.4441 18.5539L27.803 19.1746C28.0808 19.6551 28.4552 20.0571 28.88 20.4032C29.1949 20.3545 29.4726 20.3213 29.7574 20.3049V18.4579C29.1844 18.0219 28.8123 17.3299 28.8123 16.5546C28.8122 16.2415 28.8738 15.9315 28.9936 15.6426C28.8436 15.4309 28.6888 15.2643 28.5333 15.1616C28.405 15.0768 28.2778 15.0195 28.1233 15.0041C28.0856 15.0006 28.0477 14.9993 28.0098 15.0004ZM34.2857 15.0004C34.2655 15.0009 34.2457 15.0022 34.2264 15.0041C34.0719 15.0195 33.9447 15.0768 33.8165 15.1616C33.6609 15.2643 33.5061 15.4309 33.3562 15.6426C33.476 15.9315 33.5376 16.2415 33.5374 16.5546C33.5374 17.3299 33.1653 18.0219 32.5924 18.4579V20.3049C32.8879 20.3221 33.2098 20.3604 33.4698 20.4032C33.8945 20.0571 34.2689 19.6551 34.5468 19.1746L34.9056 18.5539L35.3329 19.1287C36.0269 20.0623 36.8633 20.6545 37.7864 20.9821C37.4171 20.6324 37.109 20.2578 36.9044 19.8681L37.7395 19.4219C38.0249 19.9655 38.9104 20.7212 39.8463 21.3067C40.0445 21.3052 40.2427 21.2962 40.4403 21.2796C40.8815 21.2428 41.3273 21.1664 41.7711 21.0587C41.2873 20.8266 40.8184 20.5911 40.385 20.3493C39.5136 19.8633 38.778 19.3689 38.345 18.7306L39.1249 18.1922C39.3886 18.5811 40.022 19.0575 40.8423 19.5151C41.5121 19.8887 42.3022 20.2611 43.1111 20.6358C43.8348 20.3552 44.5336 20.0015 45.1749 19.6007C41.5598 18.4974 37.4802 16.0343 34.8003 15.0983C34.5924 15.0256 34.4272 14.9963 34.2857 15.0004V15.0004ZM31.1749 15.1755C30.3864 15.1755 29.7574 15.8102 29.7574 16.6057C29.7574 17.4012 30.3864 18.0358 31.1749 18.0358C31.9634 18.0358 32.5924 17.4012 32.5924 16.6057C32.5924 15.8102 31.9634 15.1755 31.1749 15.1755ZM30.7024 18.8898V20.358C30.8673 20.3942 31.0425 20.454 31.1749 20.5303C31.3332 20.4419 31.4867 20.3952 31.6474 20.358V18.8898C31.4946 18.9214 31.3365 18.9381 31.1749 18.9381C31.0132 18.9381 30.8552 18.9214 30.7024 18.8898ZM29.9613 21.2527C29.8692 21.2538 29.7771 21.2578 29.6852 21.2646C28.9256 21.3208 27.9841 21.5673 27.5972 21.7524C26.7167 22.1734 26.3481 22.5741 26.167 22.9434C25.9858 23.3127 25.9773 23.7062 25.9773 24.1819C25.9773 24.738 26.2312 25.1483 26.6947 25.5412C27.1582 25.9341 27.8262 26.2647 28.5138 26.5393C29.7833 27.2116 31.1222 27.9064 32.1786 28.6835C32.4689 28.8906 32.8391 29.0207 33.1235 29.1708C33.4021 28.8753 33.5374 28.603 33.5374 28.3531C33.5374 28.2041 33.498 28.0395 33.4256 27.8655C32.7042 26.4901 31.348 25.8267 29.9224 25.0339L29.9191 25.0376C29.3065 24.7979 28.737 24.6586 28.3398 24.6586L28.1285 23.7554C29.0637 23.2837 29.7489 22.8882 30.1566 22.5114C30.5556 22.1427 30.7039 21.8408 30.7005 21.3606C30.4639 21.256 30.1951 21.2503 29.9613 21.2527ZM32.3884 21.2527C32.1419 21.2611 31.8392 21.2565 31.6492 21.3606C31.6458 21.8408 31.7941 22.1427 32.1932 22.5114C32.6008 22.8882 33.2861 23.2837 34.2212 23.7554L34.0099 24.6586C33.5396 24.6586 32.8279 24.8534 32.0889 25.1796C32.6824 25.5629 33.2464 26.0094 33.713 26.5866C33.754 26.5706 33.7949 26.5557 33.8359 26.5393C34.5236 26.2647 35.1914 25.9341 35.655 25.5412C36.1184 25.1483 36.3724 24.738 36.3724 24.1819C36.3724 23.7062 36.3639 23.3127 36.1828 22.9434C36.0016 22.5741 35.633 22.1734 34.7525 21.7524C34.3657 21.5673 33.4242 21.3208 32.6645 21.2646C32.5726 21.2578 32.4806 21.2538 32.3884 21.2527ZM31.1749 22.7891C31.0622 22.9431 30.935 23.0855 30.7949 23.2145C30.7648 23.2422 30.7337 23.2696 30.7024 23.2969V24.3188C30.8621 24.3922 31.0199 24.4701 31.1753 24.5524C31.3306 24.4702 31.488 24.3924 31.6474 24.3188V23.2969C31.6161 23.2699 31.5853 23.2424 31.5549 23.2145C31.4148 23.0855 31.2875 22.9431 31.1749 22.7891ZM28.9578 27.7883C28.8637 27.9909 28.8123 28.1822 28.8123 28.3531C28.8123 28.641 28.9913 28.9588 29.3629 29.3074C29.7346 29.6559 30.2706 30.0025 30.821 30.3239C31.3713 30.6454 31.9332 30.9425 32.3845 31.238C32.6101 31.3857 32.8091 31.5311 32.9748 31.7033C33.1405 31.8755 33.3011 32.0972 33.3011 32.405C33.3011 32.6583 33.1741 32.899 33.024 33.0488C32.8738 33.1988 32.7076 33.2909 32.5353 33.3746C32.3998 33.4404 32.2571 33.5 32.1124 33.5592C32.4997 33.8464 32.8563 34.1582 33.144 34.4669C33.3047 34.3925 33.467 34.3181 33.6272 34.24C34.0396 34.0392 34.4284 33.8154 34.6862 33.5701C34.9441 33.3249 35.073 33.0952 35.073 32.7626C35.073 32.17 34.8605 31.723 34.5068 31.3148C34.1532 30.9065 33.6509 30.5573 33.127 30.2573C32.6031 29.9573 32.0641 29.7083 31.6245 29.4566C31.4047 29.3307 31.2084 29.2067 31.0393 29.0466C31.0307 29.0384 31.0222 29.0293 31.0136 29.0207C30.3945 28.6012 29.5962 28.1113 28.9578 27.7883ZM29.0999 30.3296C28.6211 30.6132 28.1687 30.9386 27.8429 31.3148C27.4892 31.7229 27.2767 32.17 27.2767 32.7626C27.2767 33.0953 27.4056 33.3249 27.6635 33.5701C27.9214 33.8154 28.3101 34.0392 28.7225 34.2401C28.8784 34.316 29.0355 34.3886 29.1915 34.461C30.3167 35.0442 31.3591 35.5996 32.38 35.88C32.6182 35.7982 32.6663 35.5741 32.6125 35.3003C31.735 34.4098 30.8519 33.8819 29.8145 33.3746C29.6422 33.2909 29.476 33.1988 29.3258 33.0488C29.1756 32.8989 29.0486 32.6583 29.0486 32.405C29.0486 32.0972 29.2092 31.8756 29.3749 31.7033C29.5406 31.5311 29.7396 31.3857 29.9653 31.238C30.0505 31.1825 30.1366 31.1284 30.2235 31.0758C29.8379 30.8476 29.4503 30.603 29.0999 30.3296ZM31.1749 31.6218C31.0065 31.718 30.8465 31.8107 30.7024 31.8982V32.7088C30.7467 32.7294 30.7912 32.7513 30.8357 32.7732C30.9447 32.8185 31.0572 32.8661 31.1747 32.9199C31.3407 32.844 31.5008 32.7775 31.6474 32.718V31.8983C31.4911 31.8039 31.3336 31.7118 31.1749 31.6218ZM30.1238 36.0203C30.1586 36.2733 30.2753 36.5042 30.4678 36.7441C30.7001 37.0336 31.039 37.3156 31.3965 37.5819C31.754 37.8482 32.1268 38.0968 32.4385 38.3664C32.7502 38.636 33.0649 38.9498 33.0649 39.4364C33.0649 40.0264 32.7211 40.5051 32.2989 41.0453C31.8767 41.5856 31.3332 42.1499 30.7922 42.6705C30.6713 42.7869 30.5568 42.889 30.4375 43C30.9236 42.7432 31.428 42.4319 31.9032 42.0832C33.2261 41.1125 34.2461 39.8394 34.2461 38.9597C34.2461 38.6936 34.1475 38.4805 33.9519 38.2472C33.7563 38.014 33.4634 37.7841 33.1491 37.5632C32.8348 37.3421 32.5025 37.1321 32.2182 36.8858C32.1848 36.8568 32.152 36.8271 32.1198 36.7968C31.3527 36.591 30.7086 36.3165 30.1238 36.0203ZM29.6588 37.2468C29.5068 37.3532 29.3517 37.4569 29.2006 37.5632C28.8864 37.7841 28.5935 38.014 28.3978 38.2472C28.2023 38.4805 28.1036 38.6936 28.1036 38.9597C28.1036 39.3956 28.3377 39.9335 28.7719 40.4858C29.1491 40.9655 29.6659 41.448 30.2383 41.885C30.3391 41.7871 30.4391 41.6882 30.5381 41.5885C30.373 41.408 30.2159 41.2278 30.0732 41.0502C29.6394 40.5102 29.2848 40.0333 29.2848 39.4364C29.2848 38.9498 29.5995 38.636 29.9112 38.3664C30.058 38.2395 30.2189 38.1173 30.3848 37.9956C30.1534 37.8015 29.9289 37.5877 29.7335 37.3441C29.708 37.3121 29.6831 37.2797 29.6588 37.2468ZM31.1745 38.5974C31.0035 38.7214 30.8402 38.84 30.7024 38.9473V40.3131C30.7364 40.3595 30.7714 40.4051 30.8073 40.45C30.9225 40.5934 31.0514 40.7425 31.1893 40.8943C31.3216 40.7442 31.4461 40.5967 31.5569 40.4549C31.5886 40.4143 31.6184 40.3742 31.6474 40.3343V38.9473C31.5088 38.8394 31.3467 38.7222 31.1745 38.5974Z" fill="#333333"/>
<rect x="148.175" y="1" width="102.65" height="54" rx="27" stroke="#333333" stroke-width="2"/>
<path opacity="0.6" d="M181.321 15H179.628L182.71 6.26953H184.655L187.731 15H186.044L183.712 8.0625H183.641L181.321 15ZM181.38 11.5781H185.979V12.8438H181.38V11.5781ZM191.456 6.26953V15H189.874V6.26953H191.456ZM197.941 15.1172C197.176 15.1172 196.49 14.9395 195.885 14.584C195.283 14.2285 194.809 13.7168 194.461 13.0488C194.117 12.3809 193.945 11.5781 193.945 10.6406C193.945 9.69922 194.119 8.89453 194.467 8.22656C194.818 7.55469 195.295 7.04102 195.896 6.68555C196.502 6.33008 197.184 6.15234 197.941 6.15234C198.422 6.15234 198.871 6.2207 199.289 6.35742C199.711 6.49414 200.086 6.69531 200.414 6.96094C200.742 7.22266 201.01 7.54492 201.217 7.92773C201.428 8.30664 201.566 8.73828 201.633 9.22266H200.039C199.996 8.95703 199.912 8.72266 199.787 8.51953C199.666 8.31641 199.514 8.14453 199.33 8.00391C199.15 7.85938 198.945 7.75195 198.715 7.68164C198.484 7.60742 198.236 7.57031 197.971 7.57031C197.494 7.57031 197.072 7.68945 196.705 7.92773C196.338 8.16211 196.051 8.50977 195.844 8.9707C195.637 9.42773 195.533 9.98438 195.533 10.6406C195.533 11.3047 195.637 11.8652 195.844 12.3223C196.055 12.7754 196.342 13.1191 196.705 13.3535C197.072 13.584 197.492 13.6992 197.965 13.6992C198.227 13.6992 198.471 13.666 198.697 13.5996C198.924 13.5293 199.129 13.4258 199.312 13.2891C199.5 13.1484 199.654 12.9805 199.775 12.7852C199.9 12.5859 199.988 12.3574 200.039 12.0996H201.633C201.574 12.5176 201.445 12.9102 201.246 13.2773C201.051 13.6406 200.793 13.9609 200.473 14.2383C200.156 14.5117 199.785 14.7266 199.359 14.8828C198.934 15.0391 198.461 15.1172 197.941 15.1172ZM204.086 15V6.26953H207.362C208.034 6.26953 208.596 6.39453 209.049 6.64453C209.506 6.89453 209.852 7.23828 210.086 7.67578C210.321 8.11328 210.438 8.60938 210.438 9.16406C210.438 9.72266 210.319 10.2207 210.081 10.6582C209.846 11.0918 209.499 11.4336 209.038 11.6836C208.577 11.9297 208.01 12.0527 207.338 12.0527H205.17V10.752H207.122C207.516 10.752 207.838 10.6855 208.088 10.5527C208.342 10.416 208.528 10.2285 208.645 9.99023C208.766 9.74805 208.827 9.47266 208.827 9.16406C208.827 8.85156 208.766 8.57812 208.645 8.34375C208.528 8.10547 208.342 7.92188 208.088 7.79297C207.838 7.66016 207.514 7.59375 207.116 7.59375H205.668V15H204.086ZM212.956 15H211.263L214.345 6.26953H216.29L219.366 15H217.679L215.347 8.0625H215.276L212.956 15ZM213.015 11.5781H217.614V12.8438H213.015V11.5781Z" fill="#333333"/>
<path d="M180.845 25.4C180.752 24.6933 180.558 24.08 180.265 23.56C179.972 23.0267 179.578 22.62 179.085 22.34C178.605 22.0467 178.025 21.9 177.345 21.9C176.692 21.9 176.145 22.0867 175.705 22.46C175.278 22.8333 175.065 23.2933 175.065 23.84C175.065 24.2933 175.192 24.6867 175.445 25.02C175.712 25.3533 176.092 25.66 176.585 25.94C177.078 26.2067 177.665 26.4867 178.345 26.78C178.852 26.9933 179.365 27.2333 179.885 27.5C180.405 27.7533 180.885 28.06 181.325 28.42C181.765 28.78 182.118 29.2 182.385 29.68C182.665 30.1467 182.805 30.7067 182.805 31.36C182.805 32.1333 182.598 32.82 182.185 33.42C181.785 34.02 181.212 34.4867 180.465 34.82C179.718 35.1533 178.838 35.32 177.825 35.32C177.265 35.32 176.672 35.2333 176.045 35.06C175.418 34.9 174.845 34.6533 174.325 34.32L174.385 35.18H173.025L172.985 30.64H174.125C174.272 31.7733 174.692 32.6333 175.385 33.22C176.078 33.7933 176.912 34.08 177.885 34.08C178.378 34.08 178.818 33.9933 179.205 33.82C179.592 33.6333 179.892 33.3867 180.105 33.08C180.332 32.76 180.445 32.4 180.445 32C180.445 31.48 180.285 31.0533 179.965 30.72C179.645 30.3867 179.238 30.1 178.745 29.86C178.252 29.62 177.738 29.3867 177.205 29.16C176.605 28.9067 176.038 28.64 175.505 28.36C174.972 28.0667 174.498 27.74 174.085 27.38C173.685 27.0067 173.365 26.58 173.125 26.1C172.898 25.62 172.785 25.0533 172.785 24.4C172.785 24.0133 172.858 23.6067 173.005 23.18C173.152 22.74 173.392 22.3333 173.725 21.96C174.072 21.5867 174.532 21.28 175.105 21.04C175.678 20.8 176.392 20.68 177.245 20.68C177.778 20.68 178.358 20.76 178.985 20.92C179.625 21.0667 180.185 21.3133 180.665 21.66L180.585 20.82H181.965V25.4H180.845ZM192.943 35.32C191.676 35.32 190.596 35.1067 189.703 34.68C188.809 34.2533 188.083 33.6867 187.523 32.98C186.976 32.26 186.576 31.4667 186.323 30.6C186.069 29.7333 185.943 28.8667 185.943 28C185.943 27.16 186.083 26.3133 186.363 25.46C186.643 24.5933 187.069 23.8 187.643 23.08C188.229 22.36 188.963 21.78 189.843 21.34C190.723 20.9 191.756 20.68 192.943 20.68C194.156 20.68 195.203 20.9 196.083 21.34C196.976 21.78 197.703 22.3667 198.263 23.1C198.836 23.82 199.256 24.6067 199.523 25.46C199.803 26.3133 199.943 27.16 199.943 28C199.943 28.8267 199.803 29.6667 199.523 30.52C199.243 31.3733 198.809 32.1667 198.223 32.9C197.649 33.62 196.923 34.2067 196.043 34.66C195.163 35.1 194.129 35.32 192.943 35.32ZM193.103 34.08C193.849 34.08 194.476 33.9067 194.983 33.56C195.503 33.2133 195.923 32.76 196.243 32.2C196.563 31.64 196.796 31.0267 196.943 30.36C197.103 29.68 197.183 29.0133 197.183 28.36C197.183 27.4667 197.089 26.6333 196.903 25.86C196.716 25.0733 196.436 24.3867 196.063 23.8C195.703 23.2133 195.243 22.7533 194.683 22.42C194.123 22.0733 193.476 21.9067 192.743 21.92C192.009 21.9333 191.383 22.12 190.863 22.48C190.356 22.8267 189.936 23.2867 189.603 23.86C189.283 24.42 189.049 25.04 188.903 25.72C188.756 26.4 188.683 27.0667 188.683 27.72C188.683 28.3867 188.763 29.0867 188.923 29.82C189.083 30.5533 189.336 31.2467 189.683 31.9C190.029 32.5533 190.483 33.08 191.043 33.48C191.616 33.88 192.303 34.08 193.103 34.08ZM213.91 25.48C213.75 24.32 213.356 23.44 212.73 22.84C212.103 22.2267 211.29 21.92 210.29 21.92C209.583 21.92 208.95 22.08 208.39 22.4C207.843 22.7067 207.376 23.1333 206.99 23.68C206.616 24.2133 206.33 24.84 206.13 25.56C205.93 26.2667 205.83 27.0267 205.83 27.84C205.83 29.0267 206.016 30.0733 206.39 30.98C206.776 31.8867 207.31 32.6 207.99 33.12C208.683 33.64 209.49 33.9 210.41 33.9C211.263 33.9 212.103 33.6933 212.93 33.28C213.77 32.8533 214.463 32.2533 215.01 31.48L215.83 32.22C215.203 33.0733 214.536 33.7267 213.83 34.18C213.123 34.62 212.43 34.92 211.75 35.08C211.083 35.24 210.476 35.32 209.93 35.32C208.903 35.32 207.97 35.14 207.13 34.78C206.303 34.4067 205.583 33.9 204.97 33.26C204.37 32.6067 203.903 31.8533 203.57 31C203.25 30.1333 203.09 29.2 203.09 28.2C203.09 27.28 203.23 26.3733 203.51 25.48C203.803 24.5867 204.236 23.78 204.81 23.06C205.396 22.34 206.13 21.7667 207.01 21.34C207.89 20.9 208.91 20.68 210.07 20.68C210.656 20.68 211.27 20.7733 211.91 20.96C212.55 21.1333 213.15 21.3933 213.71 21.74L213.63 20.82H215.01V25.48H213.91ZM218.577 35C218.577 34.3067 218.671 33.6867 218.857 33.14C219.057 32.5933 219.317 32.1 219.637 31.66C219.971 31.2067 220.337 30.7867 220.737 30.4C221.137 30 221.551 29.6 221.977 29.2C222.911 28.32 223.577 27.52 223.977 26.8C224.377 26.0667 224.577 25.3533 224.577 24.66C224.577 24.2067 224.517 23.7667 224.397 23.34C224.291 22.9133 224.084 22.5667 223.777 22.3C223.471 22.02 223.037 21.88 222.477 21.88C222.064 21.88 221.691 21.9867 221.357 22.2C221.024 22.4 220.784 22.64 220.637 22.92C220.771 23.0667 220.864 23.2333 220.917 23.42C220.984 23.5933 221.017 23.7533 221.017 23.9C221.017 24.0467 220.977 24.2133 220.897 24.4C220.817 24.5867 220.684 24.7467 220.497 24.88C220.324 25.0133 220.084 25.08 219.777 25.08C219.404 25.0533 219.117 24.9133 218.917 24.66C218.717 24.3933 218.617 24.0867 218.617 23.74C218.617 23.4333 218.711 23.1067 218.897 22.76C219.084 22.4133 219.357 22.08 219.717 21.76C220.091 21.44 220.544 21.18 221.077 20.98C221.611 20.78 222.224 20.68 222.917 20.68C223.451 20.68 223.977 20.7467 224.497 20.88C225.017 21.0133 225.491 21.2267 225.917 21.52C226.344 21.8 226.684 22.18 226.937 22.66C227.191 23.1267 227.317 23.7067 227.317 24.4C227.317 24.7333 227.251 25.0867 227.117 25.46C226.997 25.8333 226.777 26.24 226.457 26.68C226.137 27.12 225.704 27.6133 225.157 28.16C224.611 28.6933 223.917 29.3067 223.077 30C222.277 30.6533 221.664 31.2533 221.237 31.8C220.824 32.3467 220.577 32.7867 220.497 33.12L224.297 33.22C224.711 33.2333 225.071 33.22 225.377 33.18C225.697 33.1267 225.944 33.0067 226.117 32.82C226.304 32.62 226.397 32.3133 226.397 31.9H227.457L227.317 35H218.577Z" fill="#333333"/>
<path d="M176.987 42.5938V41.2695H183.948V42.5938H181.252V50H179.688V42.5938H176.987ZM185.815 41.2695H187.602L189.735 45.1367H189.829L191.962 41.2695H193.749L190.567 46.7422V50H188.991V46.7422L185.815 41.2695ZM195.869 50V41.2695H199.144C199.816 41.2695 200.378 41.3945 200.831 41.6445C201.289 41.8945 201.634 42.2383 201.869 42.6758C202.103 43.1133 202.22 43.6094 202.22 44.1641C202.22 44.7227 202.101 45.2207 201.863 45.6582C201.628 46.0918 201.281 46.4336 200.82 46.6836C200.359 46.9297 199.792 47.0527 199.121 47.0527H196.953V45.752H198.904C199.298 45.752 199.621 45.6855 199.871 45.5527C200.124 45.416 200.31 45.2285 200.427 44.9902C200.548 44.748 200.609 44.4727 200.609 44.1641C200.609 43.8516 200.548 43.5781 200.427 43.3438C200.31 43.1055 200.124 42.9219 199.871 42.793C199.621 42.6602 199.296 42.5938 198.898 42.5938H197.451V50H195.869ZM204.586 50V41.2695H210.27V42.5938H206.168V44.9375H209.965V46.2441H206.168V48.6758H210.293V50H204.586ZM220.192 41.2695V50H218.622V42.8105H218.569L216.53 44.1172V42.6641L218.698 41.2695H220.192Z" fill="#333333"/>
</svg>
