<svg width="8" height="14" viewBox="0 0 8 14" fill="none" xmlns="http://www.w3.org/2000/svg">
<path d="M3.65723 9.44336C3.37793 9.44336 3.15788 9.36084 2.99707 9.1958C2.84049 9.03076 2.76221 8.81494 2.76221 8.54834C2.76221 8.49756 2.76221 8.44889 2.76221 8.40234C2.76221 8.35156 2.76221 8.3029 2.76221 8.25635C2.76221 7.90934 2.8278 7.59831 2.95898 7.32324C3.0944 7.04818 3.28271 6.79639 3.52393 6.56787C3.76514 6.33936 4.04232 6.12142 4.35547 5.91406C4.66016 5.71517 4.91406 5.52686 5.11719 5.34912C5.32454 5.16715 5.48112 4.97249 5.58691 4.76514C5.69271 4.55778 5.74561 4.31445 5.74561 4.03516C5.74561 3.72201 5.66309 3.45117 5.49805 3.22266C5.33301 2.98991 5.10872 2.81006 4.8252 2.68311C4.5459 2.55615 4.23063 2.49268 3.87939 2.49268C3.59163 2.49268 3.32715 2.53923 3.08594 2.63232C2.84473 2.72542 2.63525 2.87354 2.45752 3.07666C2.27979 3.27555 2.14014 3.54215 2.03857 3.87646C1.96663 4.06266 1.85449 4.20866 1.70215 4.31445C1.5498 4.42025 1.37207 4.47314 1.16895 4.47314C0.902344 4.47314 0.694987 4.39697 0.546875 4.24463C0.398763 4.09229 0.324707 3.89128 0.324707 3.6416C0.324707 3.50195 0.341634 3.35807 0.375488 3.20996C0.409342 3.06185 0.46224 2.91162 0.53418 2.75928C0.716146 2.37419 0.9764 2.04622 1.31494 1.77539C1.65348 1.50033 2.04704 1.29085 2.49561 1.14697C2.9484 0.998861 3.43717 0.924805 3.96191 0.924805C4.66862 0.924805 5.30127 1.04753 5.85986 1.29297C6.42269 1.53841 6.86491 1.89176 7.18652 2.35303C7.50814 2.81429 7.66895 3.36865 7.66895 4.01611C7.66895 4.62549 7.51449 5.15023 7.20557 5.59033C6.89665 6.03044 6.45866 6.43245 5.8916 6.79639C5.5446 7.02067 5.27376 7.21745 5.0791 7.38672C4.88867 7.55176 4.75114 7.72103 4.6665 7.89453C4.58187 8.0638 4.53109 8.27116 4.51416 8.5166C4.51416 8.54199 4.51204 8.57161 4.50781 8.60547C4.50781 8.63509 4.5057 8.66471 4.50146 8.69434C4.47607 8.92285 4.39144 9.10482 4.24756 9.24023C4.10368 9.37565 3.9069 9.44336 3.65723 9.44336ZM3.66992 13.0234C3.46257 13.0234 3.27214 12.9748 3.09863 12.8774C2.92513 12.7801 2.78548 12.6468 2.67969 12.4775C2.57812 12.3083 2.52734 12.12 2.52734 11.9126C2.52734 11.7095 2.57812 11.5233 2.67969 11.354C2.78548 11.1847 2.92513 11.0514 3.09863 10.9541C3.27214 10.8525 3.46257 10.8018 3.66992 10.8018C3.88151 10.8018 4.07406 10.8525 4.24756 10.9541C4.42106 11.0514 4.55859 11.1847 4.66016 11.354C4.76595 11.5233 4.81885 11.7095 4.81885 11.9126C4.81885 12.12 4.76595 12.3083 4.66016 12.4775C4.55859 12.6468 4.42106 12.7801 4.24756 12.8774C4.07406 12.9748 3.88151 13.0234 3.66992 13.0234Z" fill="black" fill-opacity="0.85"/>
</svg>
