<svg xmlns="http://www.w3.org/2000/svg" viewBox="0 0 24 24" fill="none" stroke="currentColor" stroke-width="1.5" stroke-linecap="round" stroke-linejoin="round">
  <!-- Lobster body -->
  <ellipse cx="12" cy="14" rx="4" ry="5" fill="#c54841" stroke="#c54841"/>
  <!-- Head -->
  <ellipse cx="12" cy="8" rx="3" ry="2.5" fill="#c54841" stroke="#c54841"/>
  <!-- Left claw -->
  <path d="M5 10 Q3 8 4 6 Q5 5 6 6 Q7 7 6 8 L8 10" fill="#c54841" stroke="#a03830" stroke-width="1"/>
  <!-- Right claw -->
  <path d="M19 10 Q21 8 20 6 Q19 5 18 6 Q17 7 18 8 L16 10" fill="#c54841" stroke="#a03830" stroke-width="1"/>
  <!-- Antennae -->
  <path d="M10 6 Q8 3 6 2" stroke="#c54841" stroke-width="1.5" fill="none"/>
  <path d="M14 6 Q16 3 18 2" stroke="#c54841" stroke-width="1.5" fill="none"/>
  <!-- Eyes -->
  <circle cx="10.5" cy="7.5" r="0.8" fill="white"/>
  <circle cx="13.5" cy="7.5" r="0.8" fill="white"/>
  <!-- Tail segments -->
  <path d="M10 18 L12 20 L14 18" stroke="#a03830" stroke-width="1" fill="none"/>
  <path d="M9 19 L12 22 L15 19" stroke="#a03830" stroke-width="1" fill="none"/>
</svg>
