<svg width="137" height="56" viewBox="0 0 137 56" fill="none" xmlns="http://www.w3.org/2000/svg">
<rect x="1" y="1" width="135" height="54" rx="27" stroke="#33498D" stroke-width="2"/>
<path d="M58.053 22V8.9043H60.4261V14.4502H66.4905V8.9043H68.8636V22H66.4905V16.4453H60.4261V22H58.053ZM75.2951 8.9043V22H72.922V8.9043H75.2951ZM79.3535 22V8.9043H84.2666C85.2744 8.9043 86.1182 9.0918 86.7979 9.4668C87.4834 9.8418 88.002 10.3574 88.3535 11.0137C88.7051 11.6699 88.8809 12.4141 88.8809 13.2461C88.8809 14.084 88.7021 14.8311 88.3447 15.4873C87.9932 16.1377 87.4717 16.6504 86.7803 17.0254C86.0889 17.3945 85.2393 17.5791 84.2314 17.5791H80.9795V15.6279H83.9062C84.498 15.6279 84.9814 15.5283 85.3564 15.3291C85.7373 15.124 86.0156 14.8428 86.1914 14.4854C86.373 14.1221 86.4639 13.709 86.4639 13.2461C86.4639 12.7773 86.373 12.3672 86.1914 12.0156C86.0156 11.6582 85.7373 11.3828 85.3564 11.1895C84.9814 10.9902 84.4951 10.8906 83.8975 10.8906H81.7266V22H79.3535ZM92.658 22H90.118L94.7411 8.9043H97.659L102.273 22H99.742L96.244 11.5938H96.1385L92.658 22ZM92.7459 16.8672H99.6454V18.7656H92.7459V16.8672ZM107.175 22H104.635L109.258 8.9043H112.176L116.791 22H114.259L110.761 11.5938H110.656L107.175 22ZM107.263 16.8672H114.163V18.7656H107.263V16.8672Z" fill="#33498D"/>
<path d="M51.4509 37.1172C50.6853 37.1172 49.9998 36.9395 49.3943 36.584C48.7927 36.2285 48.3181 35.7168 47.9705 35.0488C47.6267 34.3809 47.4548 33.5781 47.4548 32.6406C47.4548 31.6992 47.6287 30.8945 47.9763 30.2266C48.3279 29.5547 48.8045 29.041 49.406 28.6855C50.0115 28.3301 50.6931 28.1523 51.4509 28.1523C51.9314 28.1523 52.3806 28.2207 52.7986 28.3574C53.2205 28.4941 53.5955 28.6953 53.9236 28.9609C54.2517 29.2227 54.5193 29.5449 54.7263 29.9277C54.9373 30.3066 55.0759 30.7383 55.1423 31.2227H53.5486C53.5056 30.957 53.4216 30.7227 53.2966 30.5195C53.1755 30.3164 53.0232 30.1445 52.8396 30.0039C52.6599 29.8594 52.4548 29.752 52.2244 29.6816C51.9939 29.6074 51.7459 29.5703 51.4802 29.5703C51.0037 29.5703 50.5818 29.6895 50.2146 29.9277C49.8474 30.1621 49.5603 30.5098 49.3533 30.9707C49.1462 31.4277 49.0427 31.9844 49.0427 32.6406C49.0427 33.3047 49.1462 33.8652 49.3533 34.3223C49.5642 34.7754 49.8513 35.1191 50.2146 35.3535C50.5818 35.584 51.0017 35.6992 51.4744 35.6992C51.7361 35.6992 51.9802 35.666 52.2068 35.5996C52.4334 35.5293 52.6384 35.4258 52.822 35.2891C53.0095 35.1484 53.1638 34.9805 53.2849 34.7852C53.4099 34.5859 53.4978 34.3574 53.5486 34.0996H55.1423C55.0837 34.5176 54.9548 34.9102 54.7556 35.2773C54.5603 35.6406 54.3025 35.9609 53.9822 36.2383C53.6658 36.5117 53.2947 36.7266 52.8689 36.8828C52.4431 37.0391 51.9705 37.1172 51.4509 37.1172ZM61.3929 37.1172C60.6312 37.1172 59.9456 36.9395 59.3362 36.584C58.7308 36.2285 58.2523 35.7168 57.9007 35.0488C57.553 34.3809 57.3792 33.5781 57.3792 32.6406C57.3792 31.6992 57.553 30.8945 57.9007 30.2266C58.2523 29.5547 58.7308 29.041 59.3362 28.6855C59.9456 28.3301 60.6312 28.1523 61.3929 28.1523C62.1585 28.1523 62.8421 28.3301 63.4437 28.6855C64.0452 29.041 64.5218 29.5547 64.8734 30.2266C65.2249 30.8945 65.4007 31.6992 65.4007 32.6406C65.4007 33.5781 65.2249 34.3809 64.8734 35.0488C64.5218 35.7168 64.0452 36.2285 63.4437 36.584C62.8421 36.9395 62.1585 37.1172 61.3929 37.1172ZM61.3929 35.6992C61.8655 35.6992 62.2835 35.582 62.6468 35.3477C63.0101 35.1133 63.2952 34.7695 63.5023 34.3164C63.7093 33.8594 63.8128 33.3008 63.8128 32.6406C63.8128 31.9766 63.7093 31.416 63.5023 30.959C63.2952 30.502 63.0101 30.1562 62.6468 29.9219C62.2835 29.6875 61.8655 29.5703 61.3929 29.5703C60.9202 29.5703 60.5003 29.6875 60.1331 29.9219C59.7698 30.1562 59.4847 30.502 59.2777 30.959C59.0706 31.416 58.9671 31.9766 58.9671 32.6406C58.9671 33.3008 59.0706 33.8594 59.2777 34.3164C59.4847 34.7695 59.7698 35.1133 60.1331 35.3477C60.5003 35.582 60.9202 35.6992 61.3929 35.6992ZM67.8837 28.2695H69.8231L72.413 34.5918H72.5126L75.1083 28.2695H77.0712V37H75.5184V31H75.4481L73.0223 36.9707H71.8856L69.4891 30.9883H69.4071V37H67.8837V28.2695ZM79.7768 37V28.2695H83.0522C83.7241 28.2695 84.2866 28.3945 84.7397 28.6445C85.1967 28.8945 85.5424 29.2383 85.7768 29.6758C86.0112 30.1133 86.1284 30.6094 86.1284 31.1641C86.1284 31.7227 86.0092 32.2207 85.7709 32.6582C85.5366 33.0918 85.1889 33.4336 84.728 33.6836C84.267 33.9297 83.7006 34.0527 83.0287 34.0527H80.8608V32.752H82.812C83.2065 32.752 83.5287 32.6855 83.7787 32.5527C84.0327 32.416 84.2182 32.2285 84.3354 31.9902C84.4565 31.748 84.517 31.4727 84.517 31.1641C84.517 30.8516 84.4565 30.5781 84.3354 30.3438C84.2182 30.1055 84.0327 29.9219 83.7787 29.793C83.5287 29.6602 83.2045 29.5938 82.8061 29.5938H81.3588V37H79.7768ZM88.4941 37V28.2695H90.0762V35.6758H93.9258V37H88.4941ZM97.856 28.2695V37H96.274V28.2695H97.856ZM101.687 37H99.9933L103.075 28.2695H105.021L108.097 37H106.409L104.077 30.0625H104.007L101.687 37ZM101.745 33.5781H106.345V34.8438H101.745V33.5781ZM117.424 28.2695V37H116.006L111.898 31.0527H111.822V37H110.24V28.2695H111.658L115.765 34.2168H115.841V28.2695H117.424ZM119.748 29.5938V28.2695H126.709V29.5938H124.014V37H122.449V29.5938H119.748Z" fill="#33498D"/>
<path d="M52.6382 48V41.4521H53.8247V44.2251H56.8569V41.4521H58.0435V48H56.8569V45.2227H53.8247V48H52.6382ZM60.1792 41.4521V48H58.9927V41.4521H60.1792ZM61.1284 48V41.4521H63.585C64.0889 41.4521 64.5107 41.5459 64.8506 41.7334C65.1934 41.9209 65.4526 42.1787 65.6284 42.5068C65.8042 42.835 65.8921 43.207 65.8921 43.623C65.8921 44.042 65.8027 44.4155 65.624 44.7437C65.4482 45.0688 65.1875 45.3252 64.8418 45.5127C64.4961 45.6973 64.0713 45.7896 63.5674 45.7896H61.9414V44.814H63.4048C63.7007 44.814 63.9424 44.7642 64.1299 44.6646C64.3203 44.562 64.4595 44.4214 64.5474 44.2427C64.6382 44.061 64.6836 43.8545 64.6836 43.623C64.6836 43.3887 64.6382 43.1836 64.5474 43.0078C64.4595 42.8291 64.3203 42.6914 64.1299 42.5947C63.9424 42.4951 63.6992 42.4453 63.4004 42.4453H62.3149V48H61.1284ZM66.7007 48H65.4307L67.7422 41.4521H69.2012L71.5083 48H70.2427L68.4937 42.7969H68.4409L66.7007 48ZM66.7446 45.4336H70.1943V46.3828H66.7446V45.4336ZM72.8794 48H71.6094L73.9209 41.4521H75.3799L77.687 48H76.4214L74.6724 42.7969H74.6196L72.8794 48ZM72.9233 45.4336H76.373V46.3828H72.9233V45.4336ZM77.1377 42.4453V41.4521H82.3584V42.4453H80.3369V48H79.1636V42.4453H77.1377ZM82.4639 48V43.0869H83.5845V43.9131H83.6372C83.7251 43.626 83.8789 43.4062 84.0986 43.2539C84.3184 43.0986 84.5688 43.021 84.8501 43.021C84.9116 43.021 84.9819 43.0239 85.061 43.0298C85.1431 43.0356 85.2104 43.043 85.2632 43.0518V44.1152C85.2134 44.0977 85.1357 44.083 85.0303 44.0713C84.9248 44.0596 84.8237 44.0537 84.7271 44.0537C84.5132 44.0537 84.3228 44.0991 84.1558 44.1899C83.9888 44.2808 83.8569 44.4053 83.7603 44.5635C83.6665 44.7217 83.6196 44.9062 83.6196 45.1172V48H82.4639ZM87.0254 48.1011C86.7119 48.1011 86.4307 48.0454 86.1816 47.9341C85.9326 47.8198 85.7363 47.6528 85.5928 47.4331C85.4492 47.2134 85.3774 46.9424 85.3774 46.6201C85.3774 46.3447 85.4287 46.1162 85.5312 45.9346C85.6338 45.7529 85.7729 45.6079 85.9487 45.4995C86.1274 45.3911 86.3281 45.3091 86.5508 45.2534C86.7734 45.1948 87.0034 45.1538 87.2407 45.1304C87.5308 45.0981 87.7651 45.0703 87.9438 45.0469C88.1226 45.0234 88.2515 44.9854 88.3306 44.9326C88.4126 44.8799 88.4536 44.7979 88.4536 44.6865V44.6646C88.4536 44.4272 88.3833 44.2427 88.2427 44.1108C88.1021 43.979 87.897 43.9131 87.6274 43.9131C87.3433 43.9131 87.1177 43.9746 86.9507 44.0977C86.7866 44.2207 86.6753 44.3657 86.6167 44.5327L85.54 44.3789C85.625 44.0801 85.7656 43.8311 85.9619 43.6318C86.1582 43.4297 86.397 43.2788 86.6782 43.1792C86.9624 43.0767 87.2759 43.0254 87.6187 43.0254C87.853 43.0254 88.0874 43.0532 88.3218 43.1089C88.5562 43.1616 88.7715 43.2524 88.9678 43.3813C89.1641 43.5103 89.3208 43.6831 89.438 43.8999C89.5552 44.1167 89.6138 44.3877 89.6138 44.7129V48H88.502V47.3232H88.4668C88.3965 47.458 88.2969 47.5854 88.168 47.7056C88.042 47.8228 87.8838 47.918 87.6934 47.9912C87.5059 48.0645 87.2832 48.1011 87.0254 48.1011ZM87.3198 47.2485C87.5542 47.2485 87.7563 47.2031 87.9263 47.1123C88.0962 47.0186 88.228 46.8955 88.3218 46.7432C88.4155 46.5879 88.4624 46.4194 88.4624 46.2378V45.6621C88.4243 45.6914 88.3628 45.7192 88.2778 45.7456C88.1929 45.769 88.0962 45.791 87.9878 45.8115C87.8794 45.832 87.7725 45.8496 87.667 45.8643C87.5645 45.8789 87.4751 45.8906 87.3989 45.8994C87.2261 45.9229 87.0708 45.9624 86.9331 46.0181C86.7983 46.0708 86.6914 46.144 86.6123 46.2378C86.5332 46.3315 86.4937 46.4531 86.4937 46.6025C86.4937 46.8164 86.5713 46.9775 86.7266 47.0859C86.8818 47.1943 87.0796 47.2485 87.3198 47.2485ZM90.4707 48V43.0869H91.6265V48H90.4707ZM91.0508 42.397C90.8662 42.397 90.708 42.3354 90.5762 42.2124C90.4443 42.0894 90.3784 41.9414 90.3784 41.7686C90.3784 41.5928 90.4443 41.4434 90.5762 41.3203C90.708 41.1973 90.8662 41.1357 91.0508 41.1357C91.2324 41.1357 91.3892 41.1973 91.521 41.3203C91.6528 41.4434 91.7188 41.5913 91.7188 41.7642C91.7188 41.9399 91.6528 42.0894 91.521 42.2124C91.3892 42.3354 91.2324 42.397 91.0508 42.397ZM93.6392 45.126V48H92.4834V43.0869H93.6172V43.9263H93.6743C93.7856 43.6509 93.96 43.4326 94.1973 43.2715C94.4375 43.1074 94.7422 43.0254 95.1113 43.0254C95.4512 43.0254 95.7471 43.0972 95.999 43.2407C96.251 43.3843 96.4458 43.5952 96.5835 43.8735C96.7241 44.1489 96.7944 44.4829 96.7944 44.8755V48H95.6387V45.0557C95.6387 44.7275 95.5537 44.4712 95.3838 44.2866C95.2139 44.0991 94.9795 44.0054 94.6807 44.0054C94.4785 44.0054 94.2983 44.0493 94.1401 44.1372C93.9849 44.2251 93.8618 44.3525 93.771 44.5195C93.6831 44.6836 93.6392 44.8857 93.6392 45.126ZM97.6514 48V43.0869H98.8071V48H97.6514ZM98.2314 42.397C98.0469 42.397 97.8887 42.3354 97.7568 42.2124C97.625 42.0894 97.5591 41.9414 97.5591 41.7686C97.5591 41.5928 97.625 41.4434 97.7568 41.3203C97.8887 41.1973 98.0469 41.1357 98.2314 41.1357C98.4131 41.1357 98.5698 41.1973 98.7017 41.3203C98.8335 41.4434 98.8994 41.5913 98.8994 41.7642C98.8994 41.9399 98.8335 42.0894 98.7017 42.2124C98.5698 42.3354 98.4131 42.397 98.2314 42.397ZM100.82 45.126V48H99.6641V43.0869H100.798V43.9263H100.855C100.966 43.6509 101.141 43.4326 101.378 43.2715C101.618 43.1074 101.923 43.0254 102.292 43.0254C102.632 43.0254 102.928 43.0972 103.18 43.2407C103.432 43.3843 103.626 43.5952 103.764 43.8735C103.905 44.1489 103.975 44.4829 103.975 44.8755V48H102.819V45.0557C102.819 44.7275 102.734 44.4712 102.564 44.2866C102.395 44.0991 102.16 44.0054 101.861 44.0054C101.659 44.0054 101.479 44.0493 101.321 44.1372C101.166 44.2251 101.042 44.3525 100.952 44.5195C100.864 44.6836 100.82 44.8857 100.82 45.126ZM106.959 49.9424C106.335 49.9424 105.844 49.8208 105.487 49.5776C105.129 49.3374 104.899 49.0459 104.797 48.7031L105.834 48.4482C105.881 48.5449 105.95 48.6401 106.041 48.7339C106.131 48.8306 106.253 48.9097 106.405 48.9712C106.558 49.0356 106.75 49.0679 106.981 49.0679C107.309 49.0679 107.58 48.9873 107.794 48.8262C108.011 48.668 108.119 48.4087 108.119 48.0483V47.1211H108.053C107.998 47.2383 107.913 47.3599 107.798 47.4858C107.684 47.6089 107.533 47.7144 107.346 47.8022C107.161 47.8872 106.927 47.9297 106.643 47.9297C106.268 47.9297 105.926 47.8403 105.619 47.6616C105.314 47.4829 105.071 47.2163 104.889 46.8618C104.71 46.5073 104.621 46.0635 104.621 45.5303C104.621 44.9912 104.71 44.5356 104.889 44.1636C105.071 43.7915 105.315 43.5088 105.623 43.3154C105.931 43.1221 106.273 43.0254 106.651 43.0254C106.938 43.0254 107.176 43.0737 107.363 43.1704C107.551 43.2671 107.7 43.3843 107.812 43.522C107.923 43.6567 108.009 43.7827 108.071 43.8999H108.132V43.0869H109.262V48.0791C109.262 48.498 109.162 48.8452 108.963 49.1206C108.764 49.396 108.49 49.6011 108.141 49.7358C107.795 49.8735 107.401 49.9424 106.959 49.9424ZM106.968 47.02C107.337 47.02 107.621 46.8882 107.82 46.6245C108.022 46.3579 108.124 45.9902 108.124 45.5215C108.124 45.2109 108.08 44.9399 107.992 44.7085C107.904 44.4771 107.773 44.2969 107.601 44.168C107.428 44.0391 107.217 43.9746 106.968 43.9746C106.71 43.9746 106.495 44.042 106.322 44.1768C106.149 44.3115 106.019 44.4961 105.931 44.7305C105.846 44.9619 105.803 45.2256 105.803 45.5215C105.803 45.8203 105.847 46.0825 105.935 46.3081C106.023 46.5337 106.153 46.7095 106.326 46.8354C106.502 46.9585 106.716 47.02 106.968 47.02ZM110.467 48.041C110.348 48.041 110.247 48 110.163 47.918C110.081 47.8359 110.04 47.7354 110.04 47.6162C110.04 47.4971 110.081 47.3965 110.163 47.3145C110.247 47.2324 110.348 47.1914 110.467 47.1914C110.586 47.1914 110.687 47.2324 110.769 47.3145C110.853 47.3965 110.895 47.4971 110.895 47.6162C110.895 47.7354 110.853 47.8359 110.769 47.918C110.687 48 110.586 48.041 110.467 48.041ZM112.925 48.0674C112.611 48.0674 112.339 47.9951 112.111 47.8506C111.882 47.7061 111.707 47.5068 111.583 47.2529C111.46 46.999 111.399 46.708 111.399 46.3799C111.399 46.0459 111.461 45.752 111.586 45.498C111.713 45.2422 111.89 45.043 112.117 44.9004C112.345 44.7559 112.613 44.6836 112.919 44.6836C113.169 44.6836 113.391 44.7295 113.584 44.8213C113.78 44.9111 113.937 45.0391 114.056 45.2051C114.177 45.3711 114.249 45.5645 114.27 45.7852H113.649C113.627 45.6816 113.585 45.5869 113.523 45.501C113.462 45.415 113.382 45.3467 113.283 45.2959C113.183 45.2451 113.065 45.2197 112.928 45.2197C112.75 45.2197 112.595 45.2666 112.462 45.3604C112.332 45.4521 112.229 45.584 112.155 45.7559C112.081 45.9277 112.043 46.1309 112.043 46.3652C112.043 46.6016 112.08 46.8076 112.152 46.9834C112.224 47.1592 112.327 47.2949 112.459 47.3906C112.594 47.4844 112.75 47.5312 112.928 47.5312C113.112 47.5312 113.268 47.4805 113.397 47.3789C113.528 47.2773 113.612 47.1387 113.649 46.9629H114.27C114.249 47.1758 114.18 47.3652 114.065 47.5312C113.95 47.6973 113.795 47.8281 113.602 47.9238C113.409 48.0195 113.183 48.0674 112.925 48.0674ZM116.095 48.0674C115.789 48.0674 115.52 47.9971 115.29 47.8564C115.061 47.7158 114.883 47.5186 114.756 47.2646C114.631 47.0107 114.569 46.7158 114.569 46.3799C114.569 46.04 114.631 45.7432 114.756 45.4893C114.883 45.2334 115.061 45.0352 115.29 44.8945C115.52 44.7539 115.789 44.6836 116.095 44.6836C116.404 44.6836 116.672 44.7539 116.901 44.8945C117.129 45.0352 117.307 45.2334 117.434 45.4893C117.561 45.7432 117.625 46.04 117.625 46.3799C117.625 46.7158 117.561 47.0107 117.434 47.2646C117.307 47.5186 117.129 47.7158 116.901 47.8564C116.672 47.9971 116.404 48.0674 116.095 48.0674ZM116.095 47.5312C116.296 47.5312 116.462 47.4785 116.593 47.373C116.724 47.2676 116.821 47.1279 116.883 46.9541C116.948 46.7783 116.98 46.5869 116.98 46.3799C116.98 46.1689 116.948 45.9756 116.883 45.7998C116.821 45.624 116.724 45.4834 116.593 45.3779C116.462 45.2725 116.296 45.2197 116.095 45.2197C115.896 45.2197 115.731 45.2725 115.6 45.3779C115.471 45.4834 115.375 45.624 115.31 45.7998C115.246 45.9756 115.213 46.1689 115.213 46.3799C115.213 46.5869 115.246 46.7783 115.31 46.9541C115.375 47.1279 115.471 47.2676 115.6 47.373C115.731 47.4785 115.896 47.5312 116.095 47.5312ZM118.084 48V44.7246H118.691V45.2637H118.735C118.803 45.082 118.915 44.9404 119.069 44.8389C119.225 44.7354 119.411 44.6836 119.625 44.6836C119.844 44.6836 120.027 44.7354 120.173 44.8389C120.322 44.9404 120.432 45.082 120.504 45.2637H120.54C120.618 45.0859 120.742 44.9453 120.912 44.8418C121.082 44.7363 121.284 44.6836 121.518 44.6836C121.815 44.6836 122.058 44.7773 122.248 44.9648C122.437 45.1504 122.532 45.4307 122.532 45.8057V48H121.893V45.8643C121.893 45.6416 121.833 45.4814 121.711 45.3838C121.59 45.2842 121.446 45.2344 121.278 45.2344C121.071 45.2344 120.91 45.2988 120.794 45.4277C120.681 45.5547 120.625 45.7158 120.625 45.9111V48H119.986V45.8232C119.986 45.6455 119.931 45.5029 119.822 45.3955C119.712 45.2881 119.569 45.2344 119.391 45.2344C119.27 45.2344 119.158 45.2666 119.054 45.3311C118.953 45.3936 118.871 45.4814 118.808 45.5947C118.748 45.7061 118.717 45.835 118.717 45.9814V48H118.084Z" fill="#33498D"/>
<path d="M26.7046 10.0005C26.5291 10.0057 26.3266 10.0471 26.0797 10.1334C22.4428 11.4037 16.9062 14.7465 12 16.2438C12.8703 16.7878 13.8187 17.2678 14.8008 17.6485C15.8986 17.1401 16.9709 16.6346 17.8799 16.1275C18.9931 15.5066 19.8527 14.8601 20.2107 14.3323L21.2691 15.0629C20.6816 15.9292 19.6832 16.6002 18.5005 17.2598C17.9124 17.5879 17.276 17.9076 16.6194 18.2225C17.2217 18.3688 17.8268 18.4724 18.4255 18.5223C18.6964 18.5449 18.9651 18.5572 19.2317 18.5592C20.5018 17.7645 21.7036 16.7388 22.0909 16.0012L23.2241 16.6067C22.9465 17.1356 22.5285 17.644 22.0272 18.1186C23.28 17.674 24.415 16.8703 25.3569 15.6033L25.9368 14.8231L26.4238 15.6655C26.8009 16.3176 27.309 16.8632 27.8855 17.3329C28.3129 17.2669 28.6898 17.2217 29.0762 17.1995V14.6929C28.2987 14.1011 27.7937 13.162 27.7937 12.1098C27.7935 11.6849 27.8771 11.2641 28.0396 10.8721C27.8361 10.5848 27.626 10.3587 27.415 10.2193C27.2409 10.1042 27.0683 10.0264 26.8586 10.0056C26.8074 10.0008 26.756 9.99906 26.7046 10.0005ZM35.2219 10.0005C35.1945 10.0012 35.1676 10.0029 35.1414 10.0056C34.9317 10.0264 34.7591 10.1042 34.585 10.2193C34.3739 10.3587 34.1639 10.5848 33.9604 10.8721C34.1229 11.2641 34.2065 11.6849 34.2063 12.1098C34.2063 13.162 33.7013 14.1011 32.9238 14.6929V17.1995C33.3248 17.2229 33.7617 17.2749 34.1145 17.3329C34.691 16.8632 35.1991 16.3176 35.5762 15.6655L36.0632 14.8231L36.643 15.6033C37.5849 16.8703 38.72 17.674 39.9728 18.1186C39.4715 17.644 39.0534 17.1356 38.7759 16.6067L39.9091 16.0012C40.2964 16.7389 41.4982 17.7645 42.7683 18.5591C43.0374 18.557 43.3063 18.5448 43.5745 18.5224C44.1732 18.4723 44.7783 18.3687 45.3806 18.2225C44.724 17.9076 44.0876 17.5879 43.4994 17.2598C42.3168 16.6002 41.3185 15.9292 40.7309 15.0629L41.7893 14.3323C42.1473 14.8601 43.0069 15.5066 44.1201 16.1276C45.0291 16.6346 46.1014 17.1401 47.1992 17.6486C48.1813 17.2678 49.1297 16.7878 50 16.2438C45.0938 14.7465 39.5572 11.4037 35.9203 10.1334C35.6381 10.0348 35.4139 9.99499 35.2219 10.0006V10.0005ZM31 10.2382C29.9299 10.2382 29.0762 11.0995 29.0762 12.1791C29.0762 13.2587 29.9299 14.12 31 14.12C32.0701 14.12 32.9238 13.2587 32.9238 12.1791C32.9238 11.0995 32.0701 10.2382 31 10.2382ZM30.3587 15.279V17.2716C30.5826 17.3206 30.8204 17.4018 31 17.5053C31.2149 17.3854 31.4232 17.3221 31.6413 17.2716V15.279C31.4339 15.3219 31.2194 15.3445 31 15.3445C30.7806 15.3445 30.5661 15.3219 30.3587 15.279ZM29.353 18.4858C29.228 18.4873 29.1031 18.4927 28.9784 18.502C27.9474 18.5782 26.6697 18.9128 26.1446 19.1639C24.9497 19.7353 24.4494 20.2792 24.2036 20.7803C23.9577 21.2816 23.9462 21.8156 23.9462 22.4611C23.9462 23.2159 24.2908 23.7727 24.9198 24.3059C25.5488 24.8392 26.4553 25.2878 27.3886 25.6605C29.1114 26.5729 30.9285 27.5158 32.3622 28.5705C32.7562 28.8515 33.2586 29.0281 33.6445 29.2319C34.0226 28.8308 34.2063 28.4612 34.2063 28.122C34.2063 27.9198 34.1528 27.6965 34.0545 27.4603C33.0755 25.5937 31.2349 24.6934 29.3003 23.6174L29.2957 23.6225C28.4644 23.2972 27.6914 23.1081 27.1525 23.1081L26.8657 21.8823C28.1348 21.2422 29.0648 20.7054 29.6181 20.194C30.1596 19.6936 30.3608 19.284 30.3563 18.6323C30.0351 18.4903 29.6704 18.4825 29.353 18.4858ZM32.647 18.4858C32.3124 18.4972 31.9016 18.491 31.6437 18.6322C31.6392 19.284 31.8404 19.6936 32.382 20.194C32.9352 20.7054 33.8652 21.2422 35.1343 21.8823L34.8475 23.1081C34.2092 23.1081 33.2434 23.3724 32.2404 23.8152C33.046 24.3354 33.8114 24.9414 34.4446 25.7246C34.5003 25.7029 34.5558 25.6827 34.6115 25.6605C35.5447 25.2878 36.4511 24.8392 37.0802 24.3059C37.7091 23.7727 38.0538 23.2158 38.0538 22.4611C38.0538 21.8156 38.0423 21.2816 37.7965 20.7803C37.5506 20.2792 37.0503 19.7353 35.8554 19.1639C35.3304 18.9128 34.0526 18.5782 33.0216 18.502C32.8969 18.4927 32.772 18.4873 32.647 18.4858ZM31 20.571C30.8471 20.7799 30.6744 20.9732 30.4843 21.1482C30.4435 21.1859 30.4013 21.2231 30.3587 21.26V22.647C30.5756 22.7466 30.7896 22.8523 31.0006 22.964C31.2113 22.8525 31.4249 22.7468 31.6413 22.647V21.26C31.5988 21.2234 31.557 21.1861 31.5157 21.1482C31.3256 20.9732 31.1529 20.7799 31 20.571ZM27.9911 27.3556C27.8634 27.6306 27.7937 27.8901 27.7937 28.122C27.7937 28.5128 28.0366 28.944 28.5409 29.4171C29.0453 29.8902 29.7728 30.3605 30.5197 30.7968C31.2666 31.2331 32.0292 31.6362 32.6416 32.0372C32.9478 32.2378 33.2179 32.4351 33.4428 32.6688C33.6677 32.9025 33.8856 33.2033 33.8856 33.6211C33.8856 33.9648 33.7132 34.2915 33.5095 34.4948C33.3056 34.6983 33.0801 34.8234 32.8463 34.937C32.6625 35.0262 32.4687 35.1071 32.2723 35.1875C32.798 35.5773 33.2819 36.0005 33.6724 36.4193C33.8905 36.3185 34.1107 36.2174 34.3282 36.1114C34.8879 35.8389 35.4154 35.5352 35.7654 35.2023C36.1155 34.8695 36.2904 34.5578 36.2904 34.1064C36.2904 33.3021 36.002 32.6955 35.522 32.1415C35.042 31.5873 34.3603 31.1134 33.6493 30.7063C32.9383 30.2992 32.2068 29.9613 31.6102 29.6196C31.312 29.4488 31.0455 29.2805 30.816 29.0632C30.8043 29.0521 30.7928 29.0397 30.7812 29.0281C29.9409 28.4588 28.8576 27.7939 27.9911 27.3556ZM28.184 30.8044C27.5342 31.1893 26.9203 31.6309 26.478 32.1415C25.998 32.6954 25.7096 33.3021 25.7096 34.1064C25.7096 34.5578 25.8845 34.8695 26.2346 35.2023C26.5846 35.5352 27.1121 35.8389 27.6718 36.1115C27.8834 36.2145 28.0966 36.3131 28.3083 36.4114C29.8353 37.2028 31.25 37.9566 32.6355 38.3371C32.9589 38.2261 33.0241 37.922 32.951 37.5503C31.7602 36.3419 30.5617 35.6254 29.1537 34.937C28.9199 34.8234 28.6944 34.6983 28.4905 34.4948C28.2867 34.2914 28.1144 33.9648 28.1144 33.6211C28.1144 33.2033 28.3324 32.9026 28.5572 32.6688C28.7821 32.435 29.0521 32.2378 29.3584 32.0372C29.474 31.962 29.5909 31.8886 29.7089 31.8172C29.1855 31.5074 28.6595 31.1756 28.184 30.8044ZM31 32.5581C30.7716 32.6887 30.5543 32.8145 30.3587 32.9333V34.0333C30.4189 34.0613 30.4793 34.0911 30.5397 34.1208C30.6876 34.1823 30.8403 34.2468 30.9998 34.3198C31.2251 34.2168 31.4424 34.1266 31.6413 34.0459V32.9334C31.4292 32.8054 31.2154 32.6802 31 32.5581ZM29.5736 38.5276C29.6207 38.8709 29.7791 39.1842 30.0404 39.5099C30.3557 39.9027 30.8156 40.2854 31.3007 40.6468C31.7859 41.0083 32.2919 41.3456 32.715 41.7116C33.1379 42.0774 33.565 42.5033 33.565 43.1638C33.565 43.9644 33.0985 44.6141 32.5255 45.3472C31.9524 46.0804 31.2149 46.8462 30.4807 47.5528C30.3166 47.7107 30.1612 47.8493 29.9993 48C30.659 47.6515 31.3436 47.2291 31.9885 46.7558C33.7838 45.4384 35.1682 43.7106 35.1682 42.5168C35.1682 42.1555 35.0343 41.8664 34.7688 41.5498C34.5033 41.2333 34.1059 40.9213 33.6793 40.6215C33.2527 40.3214 32.8018 40.0364 32.4159 39.7021C32.3706 39.6628 32.3261 39.6225 32.2823 39.5813C31.2414 39.3021 30.3672 38.9295 29.5736 38.5276ZM28.9425 40.192C28.7362 40.3365 28.5257 40.4773 28.3207 40.6215C27.8942 40.9213 27.4967 41.2332 27.2312 41.5498C26.9658 41.8664 26.8318 42.1555 26.8318 42.5168C26.8318 43.1083 27.1496 43.8384 27.7389 44.5879C28.2508 45.2389 28.9521 45.8937 29.729 46.4868C29.8658 46.3539 30.0014 46.2198 30.1358 46.0844C29.9117 45.8395 29.6985 45.5949 29.5049 45.3539C28.9162 44.6209 28.435 43.9738 28.435 43.1638C28.435 42.5033 28.8621 42.0774 29.285 41.7116C29.4842 41.5393 29.7027 41.3735 29.9277 41.2083C29.6137 40.9449 29.3091 40.6547 29.0438 40.3241C29.0092 40.2807 28.9755 40.2367 28.9425 40.192ZM30.9995 42.025C30.7674 42.1933 30.5458 42.3542 30.3587 42.4999V44.3535C30.4049 44.4164 30.4524 44.4783 30.5012 44.5393C30.6575 44.7339 30.8325 44.9363 31.0196 45.1423C31.1991 44.9386 31.3682 44.7384 31.5185 44.5459C31.5615 44.4909 31.6019 44.4365 31.6413 44.3823V42.4999C31.4532 42.3535 31.2333 42.1944 30.9995 42.025Z" fill="#33498D"/>
</svg>
