<svg width="19" height="20" viewBox="0 0 19 20" fill="none" xmlns="http://www.w3.org/2000/svg">
<path d="M7.35227 0.500242C7.26454 0.50287 7.16331 0.523573 7.03986 0.566677C5.22138 1.20183 2.45308 2.87324 0 3.62189C0.435172 3.8939 0.90934 4.13392 1.40038 4.32424C1.9493 4.07007 2.48543 3.81731 2.93996 3.56375C3.49653 3.25329 3.92637 2.93005 4.10536 2.66613L4.63455 3.03146C4.34078 3.4646 3.8416 3.80009 3.25024 4.12991C2.95619 4.29396 2.63801 4.4538 2.30968 4.61125C2.61087 4.6844 2.91342 4.73619 3.21277 4.76114C3.34818 4.77244 3.48254 4.77858 3.61584 4.77958C4.25088 4.38227 4.85178 3.86939 5.04544 3.50059L5.61207 3.80336C5.47324 4.06781 5.26423 4.32198 5.01358 4.55929C5.64 4.33698 6.20751 3.93514 6.67844 3.30165L6.9684 2.91157L7.21192 3.33274C7.40045 3.65881 7.65451 3.93162 7.94275 4.16643C8.15645 4.13343 8.3449 4.11087 8.53812 4.09975V2.84643C8.14936 2.55057 7.89686 2.081 7.89686 1.5549C7.89674 1.34243 7.93854 1.13206 8.01982 0.936049C7.91806 0.792384 7.81302 0.679369 7.70749 0.609659C7.62044 0.55212 7.53415 0.513222 7.42931 0.50279C7.4037 0.500383 7.37798 0.499532 7.35227 0.500242ZM11.6109 0.500242C11.5972 0.50062 11.5838 0.501469 11.5707 0.50279C11.4658 0.513222 11.3796 0.55212 11.2925 0.609659C11.1869 0.679369 11.0819 0.792424 10.9802 0.936049C11.0615 1.13206 11.1033 1.34243 11.1031 1.5549C11.1031 2.081 10.8506 2.55057 10.4619 2.84643V4.09975C10.6624 4.11144 10.8809 4.13744 11.0572 4.16643C11.3455 3.93162 11.5996 3.65881 11.7881 3.33274L12.0316 2.91157L12.3215 3.30165C12.7924 3.93514 13.36 4.33698 13.9864 4.55929C13.7358 4.32198 13.5267 4.06781 13.3879 3.80336L13.9546 3.50059C14.1482 3.86943 14.7491 4.38227 15.3842 4.77954C15.5187 4.77852 15.6531 4.77239 15.7872 4.76118C16.0866 4.73615 16.3891 4.68436 16.6903 4.61125C16.362 4.4538 16.0438 4.29396 15.7497 4.12991C15.1584 3.80009 14.6593 3.4646 14.3654 3.03146L14.8946 2.66613C15.0736 2.93005 15.5034 3.25329 16.06 3.56379C16.5145 3.81731 17.0507 4.07003 17.5996 4.32428C18.0907 4.13392 18.5648 3.8939 19 3.62189C16.5469 2.87324 13.7786 1.20187 11.9601 0.566677C11.8191 0.517387 11.707 0.497493 11.6109 0.500283V0.500242ZM9.5 0.619121C8.96495 0.619121 8.53812 1.04975 8.53812 1.58956C8.53812 2.12936 8.96495 2.55999 9.5 2.55999C10.035 2.55999 10.4619 2.12936 10.4619 1.58956C10.4619 1.04975 10.035 0.619121 9.5 0.619121ZM9.17937 3.1395V4.13582C9.29131 4.16032 9.41018 4.20092 9.5 4.25267C9.60745 4.19271 9.71161 4.16105 9.82063 4.13582V3.1395C9.71694 3.16093 9.60969 3.17226 9.5 3.17226C9.39031 3.17226 9.28306 3.16093 9.17937 3.1395ZM8.67651 4.74291C8.614 4.74366 8.55153 4.74636 8.48918 4.75099C7.97369 4.78908 7.33484 4.9564 7.07229 5.08195C6.47484 5.36766 6.22471 5.63959 6.10179 5.89016C5.97887 6.14078 5.97309 6.40781 5.97309 6.73056C5.97309 7.10794 6.14539 7.38633 6.45989 7.65296C6.77438 7.91959 7.22767 8.14388 7.6943 8.33024C8.55571 8.78647 9.46425 9.2579 10.1811 9.78525C10.3781 9.92576 10.6293 10.014 10.8223 10.1159C11.0113 9.91541 11.1031 9.73058 11.1031 9.561C11.1031 9.45991 11.0764 9.34823 11.0273 9.23016C10.5378 8.29684 9.61747 7.84668 8.65014 7.3087L8.64785 7.31124C8.2322 7.14858 7.84572 7.05404 7.57623 7.05404L7.43283 6.44117C8.0674 6.12109 8.53238 5.85272 8.80905 5.59701C9.07982 5.3468 9.18041 5.142 9.17813 4.81613C9.01754 4.74513 8.83518 4.74125 8.67651 4.74291ZM10.3235 4.74291C10.1562 4.74861 9.9508 4.74549 9.82187 4.81609C9.81959 5.142 9.92018 5.3468 10.191 5.59701C10.4676 5.85272 10.9326 6.12109 11.5672 6.44117L11.4238 7.05404C11.1046 7.05404 10.6217 7.18622 10.1202 7.4076C10.523 7.66768 10.9057 7.9707 11.2223 8.36231C11.2501 8.35147 11.2779 8.34136 11.3057 8.33024C11.7723 8.14388 12.2255 7.91959 12.5401 7.65296C12.8546 7.38633 13.0269 7.1079 13.0269 6.73056C13.0269 6.40781 13.0211 6.14078 12.8983 5.89016C12.7753 5.63959 12.5252 5.36766 11.9277 5.08195C11.6652 4.9564 11.0263 4.78908 10.5108 4.75099C10.4485 4.74636 10.386 4.74366 10.3235 4.74291ZM9.5 5.78548C9.42357 5.88993 9.3372 5.9866 9.24214 6.0741C9.22178 6.09294 9.20065 6.11154 9.17937 6.13002V6.82348C9.28779 6.8733 9.39482 6.92615 9.50032 6.98198C9.60565 6.92624 9.71246 6.87338 9.82063 6.82348V6.13002C9.79942 6.11171 9.7785 6.09307 9.75786 6.0741C9.6628 5.9866 9.57643 5.88993 9.5 5.78548ZM7.99557 9.1778C7.93169 9.31528 7.89686 9.44507 7.89686 9.561C7.89686 9.75642 8.0183 9.97202 8.27047 10.2086C8.52265 10.4451 8.8864 10.6803 9.25985 10.8984C9.6333 11.1165 10.0146 11.3181 10.3208 11.5186C10.4739 11.6189 10.6089 11.7175 10.7214 11.8344C10.8339 11.9513 10.9428 12.1016 10.9428 12.3106C10.9428 12.4824 10.8566 12.6457 10.7547 12.7474C10.6528 12.8492 10.54 12.9117 10.4231 12.9685C10.3312 13.0131 10.2344 13.0536 10.1362 13.0937C10.399 13.2886 10.641 13.5002 10.8362 13.7097C10.9452 13.6592 11.0554 13.6087 11.1641 13.5557C11.4439 13.4195 11.7077 13.2676 11.8827 13.1011C12.0577 12.9348 12.1452 12.7789 12.1452 12.5532C12.1452 12.1511 12.001 11.8477 11.761 11.5707C11.521 11.2937 11.1802 11.0567 10.8246 10.8532C10.4691 10.6496 10.1034 10.4806 9.80512 10.3098C9.65599 10.2244 9.52276 10.1402 9.40802 10.0316C9.40217 10.026 9.3964 10.0199 9.39059 10.0141C8.97044 9.72941 8.42878 9.39695 7.99557 9.1778ZM8.092 10.9022C7.76709 11.0947 7.46013 11.3155 7.23901 11.5707C6.99902 11.8477 6.85482 12.1511 6.85482 12.5532C6.85482 12.7789 6.94227 12.9348 7.11729 13.1011C7.29228 13.2676 7.55607 13.4195 7.8359 13.5558C7.94171 13.6073 8.04832 13.6566 8.15413 13.7057C8.91766 14.1014 9.625 14.4783 10.3178 14.6686C10.4794 14.613 10.5121 14.461 10.4755 14.2752C9.8801 13.671 9.28085 13.3127 8.57687 12.9685C8.45996 12.9117 8.34718 12.8492 8.24526 12.7474C8.14334 12.6457 8.05717 12.4824 8.05717 12.3106C8.05717 12.1016 8.16619 11.9513 8.27861 11.8344C8.39103 11.7175 8.52605 11.6189 8.67919 11.5186C8.73702 11.481 8.79545 11.4443 8.85446 11.4086C8.59274 11.2537 8.32975 11.0878 8.092 10.9022ZM9.5 11.779C9.38578 11.8444 9.27716 11.9072 9.17937 11.9667V12.5167C9.20943 12.5307 9.23965 12.5455 9.26987 12.5604C9.34381 12.5911 9.42016 12.6234 9.49992 12.6599C9.61254 12.6084 9.72119 12.5633 9.82063 12.5229V11.9667C9.71461 11.9027 9.60772 11.8401 9.5 11.779ZM8.7868 14.7638C8.81037 14.9354 8.88957 15.0921 9.02022 15.2549C9.17785 15.4513 9.40778 15.6427 9.65038 15.8234C9.89297 16.0041 10.1459 16.1728 10.3575 16.3558C10.569 16.5387 10.7825 16.7516 10.7825 17.0819C10.7825 17.4822 10.5493 17.807 10.2627 18.1736C9.97621 18.5402 9.60745 18.9231 9.24033 19.2764C9.15829 19.3554 9.08058 19.4247 8.99966 19.5C9.32951 19.3257 9.67178 19.1145 9.99425 18.8779C10.8919 18.2192 11.5841 17.3553 11.5841 16.7584C11.5841 16.5778 11.5171 16.4332 11.3844 16.2749C11.2517 16.1167 11.053 15.9607 10.8397 15.8107C10.6264 15.6607 10.4009 15.5182 10.2079 15.3511C10.1853 15.3314 10.163 15.3112 10.1412 15.2907C9.62068 15.151 9.18358 14.9647 8.7868 14.7638ZM8.47127 15.596C8.3681 15.6682 8.26286 15.7386 8.16034 15.8107C7.94708 15.9607 7.74833 16.1166 7.61559 16.2749C7.48289 16.4332 7.41592 16.5778 7.41592 16.7584C7.41592 17.0541 7.57479 17.4192 7.86945 17.7939C8.12539 18.1194 8.47604 18.4469 8.86448 18.7434C8.9329 18.6769 9.00072 18.6099 9.06791 18.5422C8.95585 18.4197 8.84925 18.2974 8.75246 18.1769C8.45808 17.8105 8.21749 17.4869 8.21749 17.0819C8.21749 16.7516 8.43103 16.5387 8.64252 16.3558C8.74212 16.2697 8.85133 16.1867 8.96387 16.1042C8.80684 15.9724 8.65454 15.8273 8.52192 15.662C8.50461 15.6404 8.48773 15.6184 8.47127 15.596ZM9.49976 16.5125C9.38369 16.5967 9.27291 16.6771 9.17937 16.7499V17.6768C9.20247 17.7082 9.22622 17.7392 9.25059 17.7696C9.32874 17.867 9.41624 17.9681 9.50978 18.0712C9.59955 17.9693 9.68408 17.8692 9.75927 17.7729C9.78075 17.7455 9.80095 17.7182 9.82063 17.6911V16.7499C9.7266 16.6768 9.61663 16.5972 9.49976 16.5125Z" fill="black"/>
</svg>
