<svg width="84" height="56" viewBox="0 0 84 56" fill="none" xmlns="http://www.w3.org/2000/svg">
<rect x="1" y="1" width="82" height="54" rx="9" stroke="#33498D" stroke-width="2"/>
<path opacity="0.6" d="M23.8212 15H22.1278L25.2098 6.26953H27.1552L30.2313 15H28.5438L26.2118 8.0625H26.1415L23.8212 15ZM23.8798 11.5781H28.4794V12.8438H23.8798V11.5781ZM33.9565 6.26953V15H32.3745V6.26953H33.9565ZM40.4414 15.1172C39.6758 15.1172 38.9902 14.9395 38.3848 14.584C37.7832 14.2285 37.3086 13.7168 36.9609 13.0488C36.6172 12.3809 36.4453 11.5781 36.4453 10.6406C36.4453 9.69922 36.6191 8.89453 36.9668 8.22656C37.3184 7.55469 37.7949 7.04102 38.3965 6.68555C39.002 6.33008 39.6836 6.15234 40.4414 6.15234C40.9219 6.15234 41.3711 6.2207 41.7891 6.35742C42.2109 6.49414 42.5859 6.69531 42.9141 6.96094C43.2422 7.22266 43.5098 7.54492 43.7168 7.92773C43.9277 8.30664 44.0664 8.73828 44.1328 9.22266H42.5391C42.4961 8.95703 42.4121 8.72266 42.2871 8.51953C42.166 8.31641 42.0137 8.14453 41.8301 8.00391C41.6504 7.85938 41.4453 7.75195 41.2148 7.68164C40.9844 7.60742 40.7363 7.57031 40.4707 7.57031C39.9941 7.57031 39.5723 7.68945 39.2051 7.92773C38.8379 8.16211 38.5508 8.50977 38.3437 8.9707C38.1367 9.42773 38.0332 9.98438 38.0332 10.6406C38.0332 11.3047 38.1367 11.8652 38.3437 12.3223C38.5547 12.7754 38.8418 13.1191 39.2051 13.3535C39.5723 13.584 39.9922 13.6992 40.4648 13.6992C40.7266 13.6992 40.9707 13.666 41.1973 13.5996C41.4238 13.5293 41.6289 13.4258 41.8125 13.2891C42 13.1484 42.1543 12.9805 42.2754 12.7852C42.4004 12.5859 42.4883 12.3574 42.5391 12.0996H44.1328C44.0742 12.5176 43.9453 12.9102 43.7461 13.2773C43.5508 13.6406 43.293 13.9609 42.9727 14.2383C42.6562 14.5117 42.2852 14.7266 41.8594 14.8828C41.4336 15.0391 40.9609 15.1172 40.4414 15.1172ZM46.5865 15V6.26953H49.8619C50.5337 6.26953 51.0962 6.39453 51.5494 6.64453C52.0064 6.89453 52.3521 7.23828 52.5865 7.67578C52.8209 8.11328 52.938 8.60938 52.938 9.16406C52.938 9.72266 52.8189 10.2207 52.5806 10.6582C52.3462 11.0918 51.9986 11.4336 51.5377 11.6836C51.0767 11.9297 50.5103 12.0527 49.8384 12.0527H47.6705V10.752H49.6216C50.0162 10.752 50.3384 10.6855 50.5884 10.5527C50.8423 10.416 51.0279 10.2285 51.1451 9.99023C51.2662 9.74805 51.3267 9.47266 51.3267 9.16406C51.3267 8.85156 51.2662 8.57812 51.1451 8.34375C51.0279 8.10547 50.8423 7.92188 50.5884 7.79297C50.3384 7.66016 50.0142 7.59375 49.6158 7.59375H48.1685V15H46.5865ZM55.4562 15H53.7628L56.8448 6.26953H58.7902L61.8663 15H60.1788L57.8468 8.0625H57.7765L55.4562 15ZM55.5148 11.5781H60.1144V12.8438H55.5148V11.5781Z" fill="#33498D"/>
<path d="M23.222 25.4C23.1287 24.6933 22.9354 24.08 22.642 23.56C22.3487 23.0267 21.9554 22.62 21.462 22.34C20.982 22.0467 20.402 21.9 19.722 21.9C19.0687 21.9 18.522 22.0867 18.082 22.46C17.6554 22.8333 17.442 23.2933 17.442 23.84C17.442 24.2933 17.5687 24.6867 17.822 25.02C18.0887 25.3533 18.4687 25.66 18.962 25.94C19.4554 26.2067 20.042 26.4867 20.722 26.78C21.2287 26.9933 21.742 27.2333 22.262 27.5C22.782 27.7533 23.262 28.06 23.702 28.42C24.142 28.78 24.4954 29.2 24.762 29.68C25.042 30.1467 25.182 30.7067 25.182 31.36C25.182 32.1333 24.9754 32.82 24.562 33.42C24.162 34.02 23.5887 34.4867 22.842 34.82C22.0954 35.1533 21.2154 35.32 20.202 35.32C19.642 35.32 19.0487 35.2333 18.422 35.06C17.7954 34.9 17.222 34.6533 16.702 34.32L16.762 35.18H15.402L15.362 30.64H16.502C16.6487 31.7733 17.0687 32.6333 17.762 33.22C18.4554 33.7933 19.2887 34.08 20.262 34.08C20.7554 34.08 21.1954 33.9933 21.582 33.82C21.9687 33.6333 22.2687 33.3867 22.482 33.08C22.7087 32.76 22.822 32.4 22.822 32C22.822 31.48 22.662 31.0533 22.342 30.72C22.022 30.3867 21.6154 30.1 21.122 29.86C20.6287 29.62 20.1154 29.3867 19.582 29.16C18.982 28.9067 18.4154 28.64 17.882 28.36C17.3487 28.0667 16.8754 27.74 16.462 27.38C16.062 27.0067 15.742 26.58 15.502 26.1C15.2754 25.62 15.162 25.0533 15.162 24.4C15.162 24.0133 15.2354 23.6067 15.382 23.18C15.5287 22.74 15.7687 22.3333 16.102 21.96C16.4487 21.5867 16.9087 21.28 17.482 21.04C18.0554 20.8 18.7687 20.68 19.622 20.68C20.1554 20.68 20.7354 20.76 21.362 20.92C22.002 21.0667 22.562 21.3133 23.042 21.66L22.962 20.82H24.342V25.4H23.222ZM35.3198 35.32C34.0532 35.32 32.9732 35.1067 32.0798 34.68C31.1865 34.2533 30.4598 33.6867 29.8998 32.98C29.3532 32.26 28.9532 31.4667 28.6998 30.6C28.4465 29.7333 28.3198 28.8667 28.3198 28C28.3198 27.16 28.4598 26.3133 28.7398 25.46C29.0198 24.5933 29.4465 23.8 30.0198 23.08C30.6065 22.36 31.3398 21.78 32.2198 21.34C33.0998 20.9 34.1332 20.68 35.3198 20.68C36.5332 20.68 37.5798 20.9 38.4598 21.34C39.3532 21.78 40.0798 22.3667 40.6398 23.1C41.2132 23.82 41.6332 24.6067 41.8998 25.46C42.1798 26.3133 42.3198 27.16 42.3198 28C42.3198 28.8267 42.1798 29.6667 41.8998 30.52C41.6198 31.3733 41.1865 32.1667 40.5998 32.9C40.0265 33.62 39.2998 34.2067 38.4198 34.66C37.5398 35.1 36.5065 35.32 35.3198 35.32ZM35.4798 34.08C36.2265 34.08 36.8532 33.9067 37.3598 33.56C37.8798 33.2133 38.2998 32.76 38.6198 32.2C38.9398 31.64 39.1732 31.0267 39.3198 30.36C39.4798 29.68 39.5598 29.0133 39.5598 28.36C39.5598 27.4667 39.4665 26.6333 39.2798 25.86C39.0932 25.0733 38.8132 24.3867 38.4398 23.8C38.0798 23.2133 37.6198 22.7533 37.0598 22.42C36.4998 22.0733 35.8532 21.9067 35.1198 21.92C34.3865 21.9333 33.7598 22.12 33.2398 22.48C32.7332 22.8267 32.3132 23.2867 31.9798 23.86C31.6598 24.42 31.4265 25.04 31.2798 25.72C31.1332 26.4 31.0598 27.0667 31.0598 27.72C31.0598 28.3867 31.1398 29.0867 31.2998 29.82C31.4598 30.5533 31.7132 31.2467 32.0598 31.9C32.4065 32.5533 32.8598 33.08 33.4198 33.48C33.9932 33.88 34.6798 34.08 35.4798 34.08ZM56.2867 25.48C56.1267 24.32 55.7334 23.44 55.1067 22.84C54.4801 22.2267 53.6667 21.92 52.6667 21.92C51.9601 21.92 51.3267 22.08 50.7667 22.4C50.2201 22.7067 49.7534 23.1333 49.3667 23.68C48.9934 24.2133 48.7067 24.84 48.5067 25.56C48.3067 26.2667 48.2067 27.0267 48.2067 27.84C48.2067 29.0267 48.3934 30.0733 48.7667 30.98C49.1534 31.8867 49.6867 32.6 50.3667 33.12C51.0601 33.64 51.8667 33.9 52.7867 33.9C53.6401 33.9 54.4801 33.6933 55.3067 33.28C56.1467 32.8533 56.8401 32.2533 57.3867 31.48L58.2067 32.22C57.5801 33.0733 56.9134 33.7267 56.2067 34.18C55.5001 34.62 54.8067 34.92 54.1267 35.08C53.4601 35.24 52.8534 35.32 52.3067 35.32C51.2801 35.32 50.3467 35.14 49.5067 34.78C48.6801 34.4067 47.9601 33.9 47.3467 33.26C46.7467 32.6067 46.2801 31.8533 45.9467 31C45.6267 30.1333 45.4667 29.2 45.4667 28.2C45.4667 27.28 45.6067 26.3733 45.8867 25.48C46.1801 24.5867 46.6134 23.78 47.1867 23.06C47.7734 22.34 48.5067 21.7667 49.3867 21.34C50.2667 20.9 51.2867 20.68 52.4467 20.68C53.0334 20.68 53.6467 20.7733 54.2867 20.96C54.9267 21.1333 55.5267 21.3933 56.0867 21.74L56.0067 20.82H57.3867V25.48H56.2867ZM60.9544 35C60.9544 34.3067 61.0477 33.6867 61.2344 33.14C61.4344 32.5933 61.6944 32.1 62.0144 31.66C62.3477 31.2067 62.7144 30.7867 63.1144 30.4C63.5144 30 63.9277 29.6 64.3544 29.2C65.2877 28.32 65.9544 27.52 66.3544 26.8C66.7544 26.0667 66.9544 25.3533 66.9544 24.66C66.9544 24.2067 66.8944 23.7667 66.7744 23.34C66.6677 22.9133 66.461 22.5667 66.1544 22.3C65.8477 22.02 65.4144 21.88 64.8544 21.88C64.441 21.88 64.0677 21.9867 63.7344 22.2C63.401 22.4 63.161 22.64 63.0144 22.92C63.1477 23.0667 63.241 23.2333 63.2944 23.42C63.361 23.5933 63.3944 23.7533 63.3944 23.9C63.3944 24.0467 63.3544 24.2133 63.2744 24.4C63.1944 24.5867 63.061 24.7467 62.8744 24.88C62.701 25.0133 62.461 25.08 62.1544 25.08C61.781 25.0533 61.4944 24.9133 61.2944 24.66C61.0944 24.3933 60.9944 24.0867 60.9944 23.74C60.9944 23.4333 61.0877 23.1067 61.2744 22.76C61.461 22.4133 61.7344 22.08 62.0944 21.76C62.4677 21.44 62.921 21.18 63.4544 20.98C63.9877 20.78 64.601 20.68 65.2944 20.68C65.8277 20.68 66.3544 20.7467 66.8744 20.88C67.3944 21.0133 67.8677 21.2267 68.2944 21.52C68.721 21.8 69.061 22.18 69.3144 22.66C69.5677 23.1267 69.6944 23.7067 69.6944 24.4C69.6944 24.7333 69.6277 25.0867 69.4944 25.46C69.3744 25.8333 69.1544 26.24 68.8344 26.68C68.5144 27.12 68.081 27.6133 67.5344 28.16C66.9877 28.6933 66.2944 29.3067 65.4544 30C64.6544 30.6533 64.041 31.2533 63.6144 31.8C63.201 32.3467 62.9544 32.7867 62.8744 33.12L66.6744 33.22C67.0877 33.2333 67.4477 33.22 67.7544 33.18C68.0744 33.1267 68.321 33.0067 68.4944 32.82C68.681 32.62 68.7744 32.3133 68.7744 31.9H69.8344L69.6944 35H60.9544Z" fill="#33498D"/>
<path d="M19.4866 42.5938V41.2695H26.4476V42.5938H23.7523V50H22.1878V42.5938H19.4866ZM28.3153 41.2695H30.1024L32.2352 45.1367H32.329L34.4618 41.2695H36.2489L33.0673 46.7422V50H31.4911V46.7422L28.3153 41.2695ZM38.3686 50V41.2695H41.644C42.3159 41.2695 42.8784 41.3945 43.3315 41.6445C43.7885 41.8945 44.1342 42.2383 44.3686 42.6758C44.603 43.1133 44.7202 43.6094 44.7202 44.1641C44.7202 44.7227 44.601 45.2207 44.3627 45.6582C44.1284 46.0918 43.7807 46.4336 43.3198 46.6836C42.8588 46.9297 42.2924 47.0527 41.6205 47.0527H39.4526V45.752H41.4038C41.7983 45.752 42.1205 45.6855 42.3705 45.5527C42.6245 45.416 42.81 45.2285 42.9272 44.9902C43.0483 44.748 43.1088 44.4727 43.1088 44.1641C43.1088 43.8516 43.0483 43.5781 42.9272 43.3438C42.81 43.1055 42.6245 42.9219 42.3705 42.793C42.1205 42.6602 41.7963 42.5938 41.3979 42.5938H39.9506V50H38.3686ZM47.0859 50V41.2695H52.7695V42.5938H48.668V44.9375H52.4648V46.2441H48.668V48.6758H52.793V50H47.0859ZM62.6925 41.2695V50H61.1222V42.8105H61.0695L59.0304 44.1172V42.6641L61.1984 41.2695H62.6925Z" fill="#33498D"/>
</svg>
