<svg width="14" height="12" viewBox="0 0 14 12" fill="none" xmlns="http://www.w3.org/2000/svg">
<path d="M1 3V1.5C1 1.36739 1.05268 1.24021 1.14645 1.14645C1.24021 1.05268 1.36739 1 1.5 1H4.79313C4.92556 1.00006 5.05255 1.05266 5.14625 1.14625L7 3M1 3V10.5387C1.00033 10.661 1.04903 10.7781 1.13546 10.8645C1.22189 10.951 1.33902 10.9997 1.46125 11H12.5556C12.6735 11 12.7865 10.9532 12.8698 10.8698C12.9532 10.7865 13 10.6735 13 10.5556V3.5C13 3.36739 12.9473 3.24021 12.8536 3.14645C12.7598 3.05268 12.6326 3 12.5 3H1Z" stroke="black" stroke-linecap="round" stroke-linejoin="round"/>
</svg>
