<svg width="16" height="16" viewBox="0 0 16 16" fill="none" xmlns="http://www.w3.org/2000/svg">
<g id="icon/cloud">
<path id="Vector" d="M11.6661 12.6666H5.99946C5.13403 12.6664 4.28572 12.4255 3.54931 11.9709C2.8129 11.5163 2.2174 10.8659 1.82937 10.0923C1.44134 9.31877 1.27605 8.45255 1.35198 7.59047C1.42792 6.72838 1.74207 5.90439 2.25935 5.21057C2.77663 4.51676 3.47665 3.98045 4.28119 3.66158C5.08573 3.34271 5.96309 3.25384 6.81522 3.4049C7.66736 3.55596 8.46071 3.941 9.10661 4.51699C9.75251 5.09298 10.2255 5.83724 10.4728 6.66659H11.6661C12.4618 6.66659 13.2248 6.98266 13.7874 7.54527C14.3501 8.10788 14.6661 8.87094 14.6661 9.66659C14.6661 10.4622 14.3501 11.2253 13.7874 11.7879C13.2248 12.3505 12.4618 12.6666 11.6661 12.6666Z" stroke="#404040" stroke-width="2" stroke-linecap="round" stroke-linejoin="round"/>
</g>
</svg>
