<svg width="32" height="32" viewBox="0 0 32 32" fill="none" xmlns="http://www.w3.org/2000/svg">
<g id="Icon">
<path id="Vector" d="M6.55469 25.1376L13.1033 18.588M6.55469 25.1376L19.6278 22.9587C19.7575 22.937 19.8793 22.8816 19.9808 22.798C20.0823 22.7144 20.1601 22.6056 20.2063 22.4824L22.3045 16.8872M6.55469 25.1376L8.73278 12.0636C8.75448 11.9339 8.8099 11.8122 8.8935 11.7107C8.97709 11.6092 9.08591 11.5314 9.20904 11.4852L14.8042 9.387M22.3045 16.8872L14.8042 9.387M22.3045 16.8872L25.0852 14.1065C25.2257 13.9658 25.3047 13.7751 25.3047 13.5763C25.3047 13.3775 25.2257 13.1868 25.0852 13.0461L18.6481 6.60622C18.5075 6.46567 18.3168 6.38672 18.1179 6.38672C17.9191 6.38672 17.7284 6.46567 17.5878 6.60622L14.8042 9.387M16.3043 17.2623C16.3043 18.2978 15.4648 19.1373 14.4292 19.1373C13.3936 19.1373 12.5542 18.2978 12.5542 17.2623C12.5542 16.2267 13.3936 15.3872 14.4292 15.3872C15.4648 15.3872 16.3043 16.2267 16.3043 17.2623Z" stroke="#4C4442" stroke-width="1.5" stroke-linecap="round" stroke-linejoin="round"/>
</g>
</svg>
