<svg width="22" height="19" viewBox="0 0 22 19" fill="none" xmlns="http://www.w3.org/2000/svg">
<path id="Vector" d="M14.7425 14.888C14.7425 15.9656 16.3465 18.1208 16.8811 18.1208C18.485 18.1208 19.9104 16.3244 20.6236 14.888C21.3368 13.0917 21.1583 8.60245 19.0197 2.49577C17.4617 1.40202 15.8118 1.05181 14.2079 0.879395L13.1685 2.95159C11.7345 2.70213 10.2687 2.70213 8.83469 2.95159L7.79213 0.879395C6.1882 1.05181 4.53828 1.40202 2.98033 2.49577C0.841745 8.60245 0.663174 13.0917 1.37639 14.888C2.08961 16.3244 3.51497 18.1208 5.11891 18.1208C5.65355 18.1208 7.25749 15.9656 7.25749 14.888M5.65308 14.3492C9.3956 15.4268 12.6035 15.4268 16.346 14.3492M6.72237 9.50008C6.72237 9.78588 6.83503 10.06 7.03556 10.2621C7.23609 10.4641 7.50807 10.5777 7.79166 10.5777C8.07526 10.5777 8.34723 10.4641 8.54776 10.2621C8.7483 10.06 8.86095 9.78588 8.86095 9.50008C8.86095 9.21429 8.7483 8.9402 8.54776 8.73812C8.34723 8.53603 8.07526 8.4225 7.79166 8.4225C7.50807 8.4225 7.23609 8.53603 7.03556 8.73812C6.83503 8.9402 6.72237 9.21429 6.72237 9.50008ZM13.1381 9.50008C13.1381 9.78588 13.2508 10.06 13.4513 10.2621C13.6518 10.4641 13.9238 10.5777 14.2074 10.5777C14.491 10.5777 14.763 10.4641 14.9635 10.2621C15.164 10.06 15.2767 9.78588 15.2767 9.50008C15.2767 9.21429 15.164 8.9402 14.9635 8.73812C14.763 8.53603 14.491 8.4225 14.2074 8.4225C13.9238 8.4225 13.6518 8.53603 13.4513 8.73812C13.2508 8.9402 13.1381 9.21429 13.1381 9.50008Z" stroke="#404040" stroke-width="1.5" stroke-linecap="round" stroke-linejoin="round"/>
</svg>
