<svg width="21" height="20" viewBox="0 0 21 20" fill="none" xmlns="http://www.w3.org/2000/svg">
<path id="Vector" d="M10.5 19V15.4M10.5 15.4H1.73077C1.53696 15.4 1.35108 15.3241 1.21404 15.1891C1.07699 15.0541 1 14.871 1 14.68V9.28C1 8.03879 1.50044 6.84841 2.39124 5.97074C3.28204 5.09307 4.49022 4.6 5.75 4.6M10.5 15.4V9.28C10.5 8.03879 9.99956 6.84841 9.10876 5.97074C8.21796 5.09307 7.00978 4.6 5.75 4.6M10.5 15.4H19.2692C19.463 15.4 19.6489 15.3241 19.786 15.1891C19.923 15.0541 20 14.871 20 14.68V9.28C20 8.03879 19.4996 6.84841 18.6088 5.97074C17.718 5.09307 16.5098 4.6 15.25 4.6H5.75M7.57692 12.52H3.92308M13.4231 11.8V1H16.3462" stroke="#4C4442" stroke-width="1.5" stroke-linecap="round" stroke-linejoin="round"/>
</svg>
