<svg width="16" height="16" viewBox="0 0 16 16" fill="none" xmlns="http://www.w3.org/2000/svg">
<g id="icon/files">
<path id="Vector" d="M10.3327 1.33337H5.73268C5.46602 1.33337 5.19935 1.46671 4.99935 1.66671C4.79935 1.86671 4.66602 2.13337 4.66602 2.40004V10.9334C4.66602 11.2 4.79935 11.4667 4.99935 11.6667C5.19935 11.8667 5.46602 12 5.73268 12H12.266C12.5327 12 12.7993 11.8667 12.9993 11.6667C13.1993 11.4667 13.3327 11.2 13.3327 10.9334V4.33337L10.3327 1.33337Z" stroke="#404040" stroke-width="2" stroke-linecap="round" stroke-linejoin="round"/>
<path id="Vector_2" d="M2 5.06665V13.6C2 13.8666 2.13333 14.1333 2.33333 14.3333C2.53333 14.5333 2.8 14.6666 3.06667 14.6666H9.6" stroke="#404040" stroke-width="2" stroke-linecap="round" stroke-linejoin="round"/>
<path id="Vector_3" d="M10 1.33337V4.66671H13.3333" stroke="black" stroke-width="2" stroke-linecap="round" stroke-linejoin="round"/>
</g>
</svg>
