<svg width="16" height="16" viewBox="0 0 16 16" fill="none" xmlns="http://www.w3.org/2000/svg">
<g id="icon/github">
<path id="Vector" d="M9.99921 14.6667V12C10.092 11.1649 9.8525 10.3268 9.33254 9.66671C11.3325 9.66671 13.3325 8.33337 13.3325 6.00004C13.3859 5.16671 13.1525 4.34671 12.6659 3.66671C12.8525 2.90004 12.8525 2.10004 12.6659 1.33337C12.6659 1.33337 11.9992 1.33337 10.6659 2.33337C8.90588 2.00004 7.09254 2.00004 5.33254 2.33337C3.99921 1.33337 3.33254 1.33337 3.33254 1.33337C3.13254 2.10004 3.13254 2.90004 3.33254 3.66671C2.84713 4.34396 2.61153 5.16857 2.66588 6.00004C2.66588 8.33337 4.66588 9.66671 6.66588 9.66671C6.40588 9.99337 6.21254 10.3667 6.09921 10.7667C5.98588 11.1667 5.95254 11.5867 5.99921 12V14.6667" stroke="#404040" stroke-width="2" stroke-linecap="round" stroke-linejoin="round"/>
<path id="Vector_2" d="M6.00065 12C2.99398 13.3333 2.66732 10.6666 1.33398 10.6666" stroke="#404040" stroke-width="2" stroke-linecap="round" stroke-linejoin="round"/>
</g>
</svg>
