<svg width="18" height="16" viewBox="0 0 18 16" fill="none" xmlns="http://www.w3.org/2000/svg">
<path id="Vector" d="M6.60003 1.77778L12.2 10.3333M3.80005 14.6111L9.00001 5.66667M16.2 10.3333H6.60003M15.4136 13.7649L16.5392 11.7559C16.8488 11.2037 17.0032 10.926 17 10.6273C16.9968 10.3287 16.8336 10.0549 16.5096 9.50889L12.156 2.18456C11.812 1.60667 11.6408 1.31811 11.3544 1.15867C11.068 0.999222 10.72 1 10.0216 1H7.97842C7.28083 1 6.93203 1 6.64563 1.15867C6.35923 1.31811 6.18724 1.60667 5.84404 2.18456L1.49047 9.50889C1.16647 10.0549 1.00408 10.3279 1.00008 10.6273C0.996075 10.926 1.15127 11.2029 1.46087 11.7559L2.58726 13.7649C2.92406 14.3669 3.09286 14.6671 3.38406 14.8336C3.67525 15 4.03365 15 4.75045 15H13.2496C13.9664 15 14.3248 15 14.616 14.8336C14.9072 14.6679 15.076 14.3669 15.4136 13.7649Z" stroke="black" stroke-linecap="round" stroke-linejoin="round"/>
</svg>
