<svg width="15" height="16" viewBox="0 0 15 16" fill="none" xmlns="http://www.w3.org/2000/svg">
<path d="M4.54545 6.04V3.8C4.54545 3.05739 4.85674 2.3452 5.41082 1.8201C5.96491 1.295 6.71641 1 7.5 1C8.28359 1 9.03509 1.295 9.58918 1.8201C10.1433 2.3452 10.4545 3.05739 10.4545 3.8V6.04M1.59091 6.04H13.4091C13.7354 6.04 14 6.29072 14 6.6V14.44C14 14.7493 13.7354 15 13.4091 15H1.59091C1.26456 15 1 14.7493 1 14.44V6.6C1 6.29072 1.26456 6.04 1.59091 6.04Z" stroke="#913631" stroke-width="1.5" stroke-linecap="round" stroke-linejoin="round"/>
</svg>
