<svg width="16" height="16" viewBox="0 0 16 16" fill="none" xmlns="http://www.w3.org/2000/svg">
<g id="icon/mail-open" clip-path="url(#clip0_4441_9063)">
<path id="Vector" d="M14.134 5.60004C14.4673 5.85337 14.6673 6.24671 14.6673 6.66671V13.3334C14.6673 13.687 14.5268 14.0261 14.2768 14.2762C14.0267 14.5262 13.6876 14.6667 13.334 14.6667H2.66732C2.3137 14.6667 1.97456 14.5262 1.72451 14.2762C1.47446 14.0261 1.33398 13.687 1.33398 13.3334V6.66671C1.33398 6.45971 1.38218 6.25556 1.47475 6.07042C1.56732 5.88528 1.70172 5.72424 1.86732 5.60004L7.20065 1.60004C7.43145 1.42694 7.71216 1.33337 8.00065 1.33337C8.28914 1.33337 8.56986 1.42694 8.80065 1.60004L14.134 5.60004Z" stroke="#404040" stroke-width="2" stroke-linecap="round" stroke-linejoin="round"/>
<path id="Vector_2" d="M14.6673 6.66663L8.68732 10.4666C8.4815 10.5956 8.24353 10.664 8.00065 10.664C7.75777 10.664 7.5198 10.5956 7.31398 10.4666L1.33398 6.66663" stroke="#404040" stroke-width="2" stroke-linecap="round" stroke-linejoin="round"/>
</g>
<defs>
<clipPath id="clip0_4441_9063">
<rect width="16" height="16" fill="white"/>
</clipPath>
</defs>
</svg>
