<svg width="14" height="12" viewBox="0 0 14 12" fill="none" xmlns="http://www.w3.org/2000/svg">
<path d="M11.6154 8.72727V2.36364C11.6154 2.00198 11.4695 1.65513 11.2098 1.3994C10.9502 1.14367 10.598 1 10.2308 1H2.38462M2.38462 1C2.01739 1 1.66521 1.14367 1.40554 1.3994C1.14588 1.65513 1 2.00198 1 2.36364C1 2.93182 1.46154 3.27273 1.46154 3.27273M2.38462 1C2.75184 1 3.10402 1.14367 3.36369 1.3994C3.62335 1.65513 3.76923 2.00198 3.76923 2.36364V9.63636C3.76923 9.99802 3.91511 10.3449 4.17478 10.6006C4.43444 10.8563 4.78662 11 5.15385 11M6.07692 4.63636H9.76923M6.07692 6.45455H9.76923M5.15385 11C5.52107 11 5.87325 10.8563 6.13292 10.6006C6.39258 10.3449 6.53846 9.99802 6.53846 9.63636C6.53846 9.06818 6.07692 8.72727 6.07692 8.72727H12.5385C12.5385 8.72727 13 9.06818 13 9.63636C13 9.99802 12.8541 10.3449 12.5945 10.6006C12.3348 10.8563 11.9826 11 11.6154 11H5.15385Z" stroke="#6A6969" stroke-linecap="round" stroke-linejoin="round"/>
</svg>
