<svg width="13" height="18" viewBox="0 0 13 18" fill="none" xmlns="http://www.w3.org/2000/svg">
<path id="Vector" d="M6.5 14.6C7.95869 14.6 9.35764 14.01 10.3891 12.9598C11.4205 11.9096 12 10.4852 12 9M6.5 14.6C5.04131 14.6 3.64236 14.01 2.61091 12.9598C1.57946 11.9096 1 10.4852 1 9M6.5 14.6V17M6.5 12.2C4.76425 12.2 3.35714 10.7673 3.35714 9V4.2C3.35714 2.43269 4.76425 1 6.5 1C8.23575 1 9.64286 2.43269 9.64286 4.2V9C9.64286 10.7673 8.23575 12.2 6.5 12.2Z" stroke="#FCF4F4" stroke-linecap="round" stroke-linejoin="round"/>
</svg>
