<svg width="16" height="16" viewBox="0 0 16 16" fill="none" xmlns="http://www.w3.org/2000/svg">
<g id="icon/slack" clip-path="url(#clip0_4441_10260)">
<path id="Vector" d="M10.666 2.33337C10.666 1.78109 10.2183 1.33337 9.66602 1.33337C9.11373 1.33337 8.66602 1.78109 8.66602 2.33337V5.66671C8.66602 6.21899 9.11373 6.66671 9.66602 6.66671C10.2183 6.66671 10.666 6.21899 10.666 5.66671V2.33337Z" stroke="#404040" stroke-width="1.5" stroke-linecap="round" stroke-linejoin="round"/>
<path id="Vector_2" d="M12.666 5.66663V6.66663H13.666C13.8638 6.66663 14.0571 6.60798 14.2216 6.4981C14.386 6.38821 14.5142 6.23204 14.5899 6.04931C14.6656 5.86658 14.6854 5.66552 14.6468 5.47154C14.6082 5.27755 14.513 5.09937 14.3731 4.95952C14.2333 4.81967 14.0551 4.72443 13.8611 4.68584C13.6671 4.64726 13.4661 4.66706 13.2833 4.74275C13.1006 4.81843 12.9444 4.94661 12.8345 5.11106C12.7247 5.27551 12.666 5.46885 12.666 5.66663Z" stroke="#404040" stroke-width="1.5" stroke-linecap="round" stroke-linejoin="round"/>
<path id="Vector_3" d="M7.33398 10.3333C7.33398 9.78097 6.88627 9.33325 6.33398 9.33325C5.7817 9.33325 5.33398 9.78097 5.33398 10.3333V13.6666C5.33398 14.2189 5.7817 14.6666 6.33398 14.6666C6.88627 14.6666 7.33398 14.2189 7.33398 13.6666V10.3333Z" stroke="black" stroke-width="1.5" stroke-linecap="round" stroke-linejoin="round"/>
<path id="Vector_4" d="M3.33398 10.3333V9.33325H2.33398C2.1362 9.33325 1.94286 9.3919 1.77841 9.50178C1.61397 9.61166 1.48579 9.76784 1.41011 9.95057C1.33442 10.1333 1.31461 10.3344 1.3532 10.5283C1.39178 10.7223 1.48703 10.9005 1.62688 11.0404C1.76673 11.1802 1.94491 11.2755 2.13889 11.314C2.33288 11.3526 2.53394 11.3328 2.71667 11.2571C2.89939 11.1814 3.05557 11.0533 3.16545 10.8888C3.27534 10.7244 3.33398 10.531 3.33398 10.3333Z" stroke="black" stroke-width="1.5" stroke-linecap="round" stroke-linejoin="round"/>
<path id="Vector_5" d="M13.6673 8.66675H10.334C9.7817 8.66675 9.33398 9.11446 9.33398 9.66675C9.33398 10.219 9.7817 10.6667 10.334 10.6667H13.6673C14.2196 10.6667 14.6673 10.219 14.6673 9.66675C14.6673 9.11446 14.2196 8.66675 13.6673 8.66675Z" stroke="black" stroke-width="1.5" stroke-linecap="round" stroke-linejoin="round"/>
<path id="Vector_6" d="M10.334 12.6667H9.33398V13.6667C9.33398 13.8645 9.39263 14.0579 9.50251 14.2223C9.6124 14.3868 9.76857 14.5149 9.9513 14.5906C10.134 14.6663 10.3351 14.6861 10.5291 14.6475C10.7231 14.6089 10.9012 14.5137 11.0411 14.3739C11.1809 14.234 11.2762 14.0558 11.3148 13.8618C11.3534 13.6679 11.3336 13.4668 11.2579 13.2841C11.1822 13.1013 11.054 12.9452 10.8896 12.8353C10.7251 12.7254 10.5318 12.6667 10.334 12.6667Z" stroke="black" stroke-width="1.5" stroke-linecap="round" stroke-linejoin="round"/>
<path id="Vector_7" d="M5.66732 5.33337H2.33398C1.7817 5.33337 1.33398 5.78109 1.33398 6.33337C1.33398 6.88566 1.7817 7.33337 2.33398 7.33337H5.66732C6.2196 7.33337 6.66732 6.88566 6.66732 6.33337C6.66732 5.78109 6.2196 5.33337 5.66732 5.33337Z" stroke="black" stroke-width="1.5" stroke-linecap="round" stroke-linejoin="round"/>
<path id="Vector_8" d="M5.66602 3.33337H6.66602V2.33337C6.66602 2.13559 6.60737 1.94225 6.49749 1.7778C6.3876 1.61336 6.23143 1.48518 6.0487 1.40949C5.86597 1.33381 5.66491 1.314 5.47093 1.35259C5.27694 1.39117 5.09876 1.48642 4.95891 1.62627C4.81906 1.76612 4.72382 1.9443 4.68523 2.13828C4.64665 2.33227 4.66645 2.53333 4.74214 2.71606C4.81782 2.89878 4.946 3.05496 5.11045 3.16484C5.2749 3.27473 5.46823 3.33337 5.66602 3.33337Z" stroke="black" stroke-width="1.5" stroke-linecap="round" stroke-linejoin="round"/>
</g>
<defs>
<clipPath id="clip0_4441_10260">
<rect width="16" height="16" fill="white"/>
</clipPath>
</defs>
</svg>
