<svg width="17" height="20" viewBox="0 0 17 20" fill="none" xmlns="http://www.w3.org/2000/svg">
<path d="M16.2806 5.71938L11.0306 0.469375C10.9609 0.399749 10.8782 0.344539 10.7871 0.306898C10.6961 0.269257 10.5985 0.249923 10.5 0.25H1.5C1.10218 0.25 0.720644 0.408035 0.43934 0.68934C0.158035 0.970645 0 1.35218 0 1.75V18.25C0 18.6478 0.158035 19.0294 0.43934 19.3107C0.720644 19.592 1.10218 19.75 1.5 19.75H15C15.3978 19.75 15.7794 19.592 16.0607 19.3107C16.342 19.0294 16.5 18.6478 16.5 18.25V6.25C16.5001 6.15148 16.4807 6.05391 16.4431 5.96286C16.4055 5.87182 16.3503 5.78908 16.2806 5.71938ZM11.25 2.81031L13.9397 5.5H11.25V2.81031ZM15 18.25H1.5V1.75H9.75V6.25C9.75 6.44891 9.82902 6.63968 9.96967 6.78033C10.1103 6.92098 10.3011 7 10.5 7H15V18.25ZM11.25 12.25C11.25 12.4489 11.171 12.6397 11.0303 12.7803C10.8897 12.921 10.6989 13 10.5 13H9V14.5C9 14.6989 8.92098 14.8897 8.78033 15.0303C8.63968 15.171 8.44891 15.25 8.25 15.25C8.05109 15.25 7.86032 15.171 7.71967 15.0303C7.57902 14.8897 7.5 14.6989 7.5 14.5V13H6C5.80109 13 5.61032 12.921 5.46967 12.7803C5.32902 12.6397 5.25 12.4489 5.25 12.25C5.25 12.0511 5.32902 11.8603 5.46967 11.7197C5.61032 11.579 5.80109 11.5 6 11.5H7.5V10C7.5 9.80109 7.57902 9.61032 7.71967 9.46967C7.86032 9.32902 8.05109 9.25 8.25 9.25C8.44891 9.25 8.63968 9.32902 8.78033 9.46967C8.92098 9.61032 9 9.80109 9 10V11.5H10.5C10.6989 11.5 10.8897 11.579 11.0303 11.7197C11.171 11.8603 11.25 12.0511 11.25 12.25Z" fill="#18181B"/>
</svg>
