<svg width="20" height="16" viewBox="0 0 20 16" fill="none" xmlns="http://www.w3.org/2000/svg">
<path d="M18.5 2.375H10.5003L7.89969 0.425C7.63967 0.230989 7.32411 0.125805 6.99969 0.125H2C1.60218 0.125 1.22064 0.283035 0.93934 0.56434C0.658035 0.845644 0.5 1.22718 0.5 1.625V14.375C0.5 14.7728 0.658035 15.1544 0.93934 15.4357C1.22064 15.717 1.60218 15.875 2 15.875H18.5834C18.959 15.8745 19.319 15.7251 19.5846 15.4596C19.8501 15.194 19.9995 14.834 20 14.4584V3.875C20 3.47718 19.842 3.09564 19.5607 2.81434C19.2794 2.53304 18.8978 2.375 18.5 2.375ZM18.5 14.375H2V1.625H6.99969L9.8 3.725C9.92982 3.82237 10.0877 3.875 10.25 3.875H18.5V14.375ZM13.25 9.125C13.25 9.32391 13.171 9.51468 13.0303 9.65533C12.8897 9.79598 12.6989 9.875 12.5 9.875H11V11.375C11 11.5739 10.921 11.7647 10.7803 11.9053C10.6397 12.046 10.4489 12.125 10.25 12.125C10.0511 12.125 9.86032 12.046 9.71967 11.9053C9.57902 11.7647 9.5 11.5739 9.5 11.375V9.875H8C7.80109 9.875 7.61032 9.79598 7.46967 9.65533C7.32902 9.51468 7.25 9.32391 7.25 9.125C7.25 8.92609 7.32902 8.73532 7.46967 8.59467C7.61032 8.45402 7.80109 8.375 8 8.375H9.5V6.875C9.5 6.67609 9.57902 6.48532 9.71967 6.34467C9.86032 6.20402 10.0511 6.125 10.25 6.125C10.4489 6.125 10.6397 6.20402 10.7803 6.34467C10.921 6.48532 11 6.67609 11 6.875V8.375H12.5C12.6989 8.375 12.8897 8.45402 13.0303 8.59467C13.171 8.73532 13.25 8.92609 13.25 9.125Z" fill="#2563EB"/>
</svg>
