<svg width="32" height="32" viewBox="0 0 32 32" fill="none" xmlns="http://www.w3.org/2000/svg">
<g id="Strategy" clip-path="url(#clip0_7735_13520)">
<path id="Vector" d="M24.5 20L20.75 23.75M8 11L11.75 14.75M11.75 11L8 14.75M20.75 20L24.5 23.75M17 8L18.5 9.5C22.25 13.25 19.25 17.75 16.25 18.5M17 8V11.75M17 8H20.75M13.25 21.875C13.25 23.3247 12.0747 24.5 10.625 24.5C9.17525 24.5 8 23.3247 8 21.875C8 20.4253 9.17525 19.25 10.625 19.25C12.0747 19.25 13.25 20.4253 13.25 21.875Z" stroke="#4C4442" stroke-width="1.5" stroke-linecap="round" stroke-linejoin="round"/>
</g>
<defs>
<clipPath id="clip0_7735_13520">
<rect width="32" height="32" fill="white"/>
</clipPath>
</defs>
</svg>
