<svg width="16" height="18" viewBox="0 0 16 18" fill="none" xmlns="http://www.w3.org/2000/svg">
<path d="M9.90909 7.66667V13M15 3.66667H1M6.09091 7.66667V13M13.7273 3.66667V16.3333C13.7273 16.5101 13.6602 16.6797 13.5409 16.8047C13.4215 16.9298 13.2597 17 13.0909 17H2.90909C2.74032 17 2.57846 16.9298 2.45911 16.8047C2.33977 16.6797 2.27273 16.5101 2.27273 16.3333V3.66667M11.1818 3.66667V2.33333C11.1818 1.97971 11.0477 1.64057 10.809 1.39052C10.5704 1.14048 10.2466 1 9.90909 1H6.09091C5.75336 1 5.42964 1.14048 5.19096 1.39052C4.95227 1.64057 4.81818 1.97971 4.81818 2.33333V3.66667" stroke="#913631" stroke-width="1.5" stroke-linecap="round" stroke-linejoin="round"/>
</svg>
